<svg width="206" height="62" viewBox="0 0 206 62" fill="none" xmlns="http://www.w3.org/2000/svg">
<path d="M35.189 23.0112C35.1321 22.8412 35.0563 22.6713 34.9804 22.5203C35.0942 22.6902 35.1511 22.8601 35.189 23.0112Z" fill="#B7B7B7"/>
<path d="M85.7234 28.3923C85.1735 26.2399 83.7703 24.6538 81.0208 24.6538C76.9818 24.6538 75.2942 28.2035 75.2942 31.8098C75.2942 35.4161 76.9818 38.9657 81.0208 38.9657C83.9599 38.9657 85.5717 36.7755 85.8372 34.0378H89.0608C88.7953 38.5315 85.5907 41.6468 81.0208 41.6468C75.37 41.6468 71.9758 37.172 71.9758 31.8098C71.9758 26.4475 75.3511 21.9727 81.0208 21.9727C85.2683 21.9916 88.6246 24.3329 89.0228 28.3923H85.7234Z" fill="#B7B7B7"/>
<path d="M91.0139 34.3776C91.0139 30.2238 93.5169 27.2217 97.9161 27.2217C102.296 27.2217 104.818 30.2238 104.818 34.3776C104.818 38.5692 102.315 41.5524 97.9161 41.5524C93.5169 41.5713 91.0139 38.5692 91.0139 34.3776ZM101.784 34.3776C101.784 32.0364 100.59 29.5818 97.8972 29.5818C95.2045 29.5818 94.0099 32.0364 94.0099 34.3776C94.0099 36.7378 95.2045 39.1923 97.8972 39.1923C100.609 39.1923 101.784 36.7566 101.784 34.3776Z" fill="#B7B7B7"/>
<path d="M107.397 22.407H110.412V25.258H107.397V22.407ZM107.397 27.5993H110.412V41.2126H107.397V27.5993Z" fill="#B7B7B7"/>
<path d="M113.693 27.5993H116.556V29.6007L116.613 29.6573C117.504 28.1657 119.078 27.2405 120.86 27.2405C123.819 27.2405 125.696 28.8266 125.696 31.8664V41.2126H122.681V32.6594C122.624 30.5259 121.79 29.6007 120.007 29.6007C117.997 29.6007 116.708 31.1867 116.708 33.1881V41.2126H113.693V27.5993Z" fill="#B7B7B7"/>
<path d="M145.739 41.1937H143.634L143.141 38.9846C141.378 40.986 139.766 41.6468 137.452 41.6468C131.802 41.6468 128.407 37.172 128.407 31.8098C128.407 26.4475 131.783 21.9727 137.452 21.9727C141.567 21.9727 145.037 24.1629 145.53 28.3923H142.307C141.984 25.9189 139.823 24.6538 137.452 24.6538C133.413 24.6538 131.726 28.2035 131.726 31.8098C131.726 35.4161 133.413 38.9657 137.452 38.9657C140.828 39.0224 142.686 36.9832 142.743 33.8112H137.718V31.3189H145.758V41.1937H145.739Z" fill="#B7B7B7"/>
<path d="M151.257 35.1706C151.257 37.3042 152.414 39.1923 154.936 39.1923C156.68 39.1923 157.742 38.4371 158.273 36.9266H161.136C160.473 39.8909 157.932 41.5524 154.955 41.5524C150.669 41.5524 148.261 38.5881 148.261 34.3965C148.261 30.5259 150.802 27.2217 154.86 27.2217C159.164 27.2217 161.819 31.0923 161.307 35.1706H151.257ZM158.292 33.207C158.178 31.3189 156.889 29.6007 154.86 29.6007C152.774 29.6007 151.352 31.1867 151.257 33.207H158.292Z" fill="#B7B7B7"/>
<path d="M172.836 32.1496C172.59 30.4881 171.376 29.6007 169.726 29.6007C168.171 29.6007 165.972 30.4126 165.972 34.5475C165.972 36.8133 166.977 39.2112 169.593 39.2112C171.338 39.2112 172.552 38.0594 172.836 36.1147H175.832C175.282 39.6454 173.083 41.5902 169.575 41.5902C165.289 41.5902 162.938 38.5692 162.938 34.5664C162.938 30.4692 165.175 27.2594 169.669 27.2594C172.836 27.2594 175.529 28.8454 175.832 32.1874H172.836V32.1496Z" fill="#B7B7B7"/>
<path d="M178.373 22.407H181.388V33.0937L186.83 27.5993H190.528L185.294 32.6028L191.021 41.2126H187.342L183.17 34.6042L181.369 36.3412V41.2126H178.354V22.407H178.373Z" fill="#B7B7B7"/>
<path d="M191.855 34.3776C191.855 30.2238 194.358 27.2217 198.757 27.2217C203.138 27.2217 205.66 30.2238 205.66 34.3776C205.66 38.5692 203.157 41.5524 198.757 41.5524C194.358 41.5713 191.855 38.5692 191.855 34.3776ZM202.645 34.3776C202.645 32.0364 201.45 29.5818 198.757 29.5818C196.065 29.5818 194.87 32.0364 194.87 34.3776C194.87 36.7378 196.065 39.1923 198.757 39.1923C201.45 39.1923 202.645 36.7566 202.645 34.3776Z" fill="#B7B7B7"/>
<path d="M27.9454 6.90559C12.9273 6.98112 0.791448 19.1594 0.867297 34.1133C0.943146 49.0671 13.1738 61.151 28.1919 61.0755C43.21 61 55.3459 48.8217 55.27 33.8678C55.2131 18.914 42.9825 6.84895 27.9454 6.90559ZM24.4943 32.6783C21.8016 32.6783 19.621 30.507 19.621 27.8259C19.621 25.1448 21.8016 22.9734 24.4943 22.9734C27.1869 22.9734 29.3676 25.1448 29.3676 27.8259C29.3676 30.507 27.1869 32.6783 24.4943 32.6783ZM28.3815 37.9084L28.4005 37.8706L28.4195 37.8329C29.8037 38.7203 31.3965 39.0413 32.9704 39.079C34.5632 39.1168 36.175 39.0035 37.7679 38.6825C39.3607 38.3615 40.9156 37.8706 42.4326 37.2476C43.2859 36.9077 44.1202 36.5301 44.9166 36.0769C44.9166 36.0769 44.9356 36.0769 44.9356 36.058C45.4286 35.7559 45.9216 35.435 46.3957 35.114C46.4905 35.0385 46.6043 34.9629 46.6991 34.8874L46.7181 34.9063L46.756 34.9629C45.5424 36.0769 44.0823 36.8888 42.5843 37.6252C41.0863 38.3238 39.5314 38.9091 37.9196 39.3245C36.3078 39.7399 34.6391 40.042 32.9325 39.8909C31.2638 39.7587 29.5003 39.1734 28.3815 37.9084ZM40.8587 32.6783C40.8587 32.093 41.3328 31.621 41.9016 31.621C42.4895 31.621 42.9635 32.093 42.9635 32.6594C42.9635 33.2448 42.4895 33.7168 41.9206 33.7168C41.3517 33.7168 40.8777 33.2448 40.8587 32.6783ZM32.5343 58.6587C31.4914 51.3329 37.9196 44.1392 41.5414 40.4762C42.3567 39.6455 43.6272 38.4937 44.8218 37.2664C49.5245 32.886 50.4726 27.6559 40.8397 25.0315C39.0194 24.5028 37.1231 23.7664 35.208 23.0112C35.1511 22.8413 35.0752 22.6713 34.9994 22.5203C34.7718 22.1427 34.3926 21.7084 33.8047 21.2175C32.5532 20.1413 30.2019 20.1601 28.173 20.6511C25.9354 20.1224 23.7168 19.9336 21.5931 20.4434C12.2826 22.9923 10.7846 27.5238 10.4243 32.9804C9.93126 38.8713 9.64683 43.2518 7.40928 48.2741C4.62183 44.2525 2.97211 39.4 2.95315 34.1322C2.83937 20.2734 14.065 9.0014 27.9644 8.94476C41.8637 8.88811 53.1842 20.0469 53.2411 33.8867C53.279 46.2538 44.3478 56.5629 32.5343 58.6587Z" fill="#B7B7B7"/>
<path d="M27.9265 27.8636C27.9265 29.7517 26.3905 31.2622 24.5133 31.2622C22.617 31.2622 21.0811 29.7329 21.0811 27.8636C21.0811 25.9944 22.617 24.465 24.5133 24.465C26.3905 24.465 27.9265 25.9944 27.9265 27.8636Z" fill="#B7B7B7"/>
</svg>
