<svg width="278" height="61" viewBox="0 0 278 61" fill="none" xmlns="http://www.w3.org/2000/svg">
<path d="M40.9518 35.0998C40.118 35.6008 39.1451 35.6919 38.4039 35.282C37.4774 34.7355 36.9215 33.5058 36.9215 31.8207V26.6744C36.9215 24.2151 35.9487 22.4389 34.281 21.9835C31.4551 21.1638 29.3241 24.5795 28.5366 25.8546L23.5334 33.7335V24.0329C23.4871 21.8014 22.7459 20.4806 21.3561 20.0707C20.4296 19.7975 19.0398 19.9341 17.6964 21.938L6.53191 39.5174C5.04949 36.7393 4.26196 33.6424 4.26196 30.5C4.26196 19.8886 12.9248 11.281 23.5334 11.281C34.142 11.281 42.8049 19.8886 42.8049 30.5V30.5455V30.5911C42.8975 32.6405 42.249 34.28 40.9518 35.0998ZM47.0668 30.5V30.4545V30.4089C47.0205 17.5203 36.4583 7 23.5334 7C10.5622 7 0 17.5204 0 30.5C0 43.4341 10.5622 54 23.5334 54C29.5094 54 35.1611 51.7684 39.5158 47.7151C40.3959 46.8953 40.4423 45.5746 39.6084 44.7093C38.8209 43.844 37.4774 43.7984 36.5972 44.5727C36.5972 44.5727 36.5972 44.5727 36.5509 44.6182C33.0302 47.8973 28.305 49.7645 23.4408 49.7645C17.7427 49.7645 12.6469 47.3052 9.12615 43.3886L19.1788 27.5397V34.8721C19.1788 38.3789 20.5686 39.5174 21.7267 39.8362C22.8849 40.155 24.6452 39.9273 26.5446 36.9671L32.0573 28.1773C32.2426 27.9041 32.3816 27.6308 32.5669 27.4486V31.9118C32.5669 35.1909 33.9103 37.8324 36.2266 39.1076C38.3113 40.2917 40.9518 40.155 43.1292 38.8343C45.816 37.1037 47.2521 34.0979 47.0668 30.5ZM79.8654 22.4845C80.4213 22.8033 80.9308 23.5775 80.9308 24.2607C80.9308 25.3537 80.0043 26.2645 78.9389 26.2645C78.6609 26.2645 78.4293 26.1734 78.1976 26.1279C76.9468 25.2171 75.3718 24.625 73.7041 24.625C69.7664 24.625 67.0795 27.7674 67.0795 31.6841C67.0795 35.6008 69.8127 38.6977 73.7041 38.6977C75.6497 38.6977 77.4101 37.9235 78.7072 36.6938C79.0315 36.4661 79.4484 36.3295 79.8654 36.3295C80.9309 36.3295 81.7647 37.1492 81.7647 38.1967C81.7647 38.8798 81.3478 39.4719 80.8382 39.7907C78.9388 41.3847 76.3909 42.4322 73.7504 42.4322C67.728 42.4322 62.8175 37.5591 62.8175 31.5475C62.8175 25.5358 67.728 20.6628 73.7504 20.6628C75.974 20.6172 78.105 21.3004 79.8654 22.4845ZM90.8909 27.0388C95.0138 27.0388 98.4419 30.4545 98.4419 34.6899C98.4419 38.8798 94.9675 42.4777 90.8909 42.4777C86.5826 42.4777 83.0155 38.9254 83.0155 34.6899C83.0155 30.4545 86.5826 27.0388 90.8909 27.0388ZM90.8445 38.6977C92.6512 38.6977 94.18 37.0126 94.18 34.7355C94.18 32.4583 92.6512 31.001 90.8445 31.001C88.8989 31.001 87.2775 32.4128 87.2775 34.7355C87.2775 36.967 88.8989 38.6977 90.8445 38.6977ZM101.036 40.1095V29.3614C101.036 28.1773 101.963 27.2209 103.167 27.2209C104.325 27.2209 105.298 28.1773 105.298 29.3614V40.1095C105.298 41.2936 104.325 42.25 103.167 42.25C102.009 42.25 101.036 41.2481 101.036 40.1095ZM100.712 23.1676C100.712 21.7558 101.824 20.6628 103.167 20.6628C104.557 20.6628 105.669 21.8014 105.669 23.1676C105.669 24.5339 104.557 25.6269 103.167 25.6269C101.777 25.5814 100.712 24.4884 100.712 23.1676ZM113.451 34.28V40.1095C113.451 41.2936 112.479 42.25 111.32 42.25C110.162 42.25 109.189 41.2936 109.189 40.1095V28.8605C109.189 27.9496 109.931 27.2209 110.857 27.2209C111.784 27.2209 112.479 27.9952 112.479 28.8605C114.193 27.2665 115.721 27.0388 117.157 27.0388C121.419 27.0388 123.319 30.1812 123.319 33.7791V40.1095C123.319 41.2936 122.346 42.25 121.188 42.25C120.03 42.25 119.057 41.2936 119.057 40.1095V34.28C119.057 32.4583 118.825 30.9099 116.138 30.9099C114.239 30.9099 113.451 32.4583 113.451 34.28ZM137.124 36.5116C136.614 36.5116 136.29 36.2839 136.012 35.9651L131.055 30.6822V40.1095C131.055 41.2936 130.082 42.25 128.924 42.25C127.766 42.25 126.793 41.2936 126.793 40.1095V21.437C126.932 21.1182 127.256 20.8905 127.581 20.8905C127.951 20.8905 128.276 21.2093 128.507 21.437L136.429 30.1812C136.661 30.4545 136.939 30.5911 137.124 30.5911C137.263 30.5911 137.587 30.4545 137.819 30.1812L145.74 21.437C145.972 21.2093 146.25 20.8905 146.667 20.8905C147.037 20.8905 147.362 21.1182 147.454 21.437V40.1095C147.454 41.2936 146.528 42.25 145.323 42.25C144.165 42.25 143.192 41.2936 143.192 40.1095V30.6822L138.236 35.9651C137.865 36.2839 137.541 36.5116 137.124 36.5116ZM157.6 38.6977C159.499 38.6977 161.12 37.0126 161.12 34.7355C161.12 32.4583 159.453 30.9554 157.6 30.9554C155.747 30.9554 154.218 32.5039 154.218 34.7355C154.218 36.9215 155.7 38.6977 157.6 38.6977ZM162.14 40.6105L162.047 40.1095C161.213 41.7035 158.573 42.4322 156.905 42.4322C152.921 42.4322 149.956 38.8798 149.956 34.6444C149.956 30.4545 152.967 26.9932 157.136 26.9932C157.831 26.9932 160.24 27.1754 162.093 29.3159L162.186 28.8149C162.186 27.9041 162.881 27.1754 163.807 27.1754C164.734 27.1754 165.475 27.9496 165.475 28.8149V40.5649C165.475 41.4758 164.734 42.2045 163.807 42.2045C162.835 42.25 162.14 41.4758 162.14 40.6105ZM177.195 30.9099H176.732C174.045 31.0465 173.536 32.5494 173.536 34.28V40.1095C173.536 41.2936 172.563 42.25 171.405 42.25C170.247 42.25 169.274 41.2936 169.274 40.1095V28.8605C169.274 27.9496 170.015 27.2209 170.942 27.2209C171.868 27.2209 172.563 27.9952 172.563 28.8605C174.138 27.4031 175.435 27.0843 176.732 27.0388H177.149C178.168 27.0388 179.095 27.9041 179.095 28.9971C179.141 29.999 178.215 30.9099 177.195 30.9099ZM193.641 39.1076C193.826 39.4264 193.965 39.7452 193.965 40.1095C193.965 41.2025 192.946 42.2045 191.834 42.2045C191.093 42.2045 190.445 41.6579 189.935 41.0204L185.025 35.4186V40.064C185.025 41.2481 184.052 42.2045 182.894 42.2045C181.735 42.2045 180.763 41.2481 180.763 40.064V22.9855C180.763 21.8014 181.689 20.845 182.894 20.845C184.098 20.845 185.025 21.8014 185.025 22.9855V33.6424L189.935 28.314C190.445 27.7674 191.047 27.1754 191.788 27.1754C192.854 27.1754 193.826 28.1318 193.826 29.2248C193.826 29.5436 193.734 29.9079 193.548 30.1812L189.657 34.3711L193.641 39.1076ZM201.98 30.9554C200.822 30.9554 198.922 31.5475 198.922 33.3236H205.083C205.037 31.5475 203.091 30.9554 201.98 30.9554ZM207.539 36.0107H198.922C198.922 38.5155 201.377 38.9254 202.443 38.9254C203.23 38.9254 204.342 38.7888 205.222 38.3789C205.5 38.1967 205.917 38.0601 206.334 38.0601C207.261 38.0601 208.048 38.8343 208.048 39.7907C208.048 40.4283 207.631 40.9748 207.122 41.2936C205.825 42.25 204.111 42.4777 202.489 42.4777C198.181 42.4777 194.614 40.2006 194.614 34.8721C194.614 30.6822 196.791 27.0388 201.887 27.0388C206.01 27.0388 209.114 29.6802 209.206 34.3711C209.206 35.2364 208.465 36.0107 207.539 36.0107ZM219.398 42.4322H218.24C214.997 42.4322 213.098 41.0204 213.098 36.0562V30.9099H211.986C210.967 30.9099 210.087 29.999 210.087 28.9971C210.087 27.9041 211.013 27.0388 211.986 27.0388H213.098V23.0766C213.098 21.8924 214.024 20.936 215.229 20.936C216.387 20.936 217.36 21.8924 217.36 23.0766V27.0388H219.12C220.139 27.0388 221.019 27.9041 221.019 28.9971C221.019 29.999 220.093 30.9099 219.12 30.9099H217.36V35.2364C217.36 38.1056 217.499 38.6977 218.796 38.6977H219.398C220.417 38.6977 221.297 39.5174 221.297 40.5649C221.297 41.5669 220.417 42.4322 219.398 42.4322ZM240.013 22.4845C240.569 22.8033 241.078 23.5775 241.078 24.2607C241.078 25.3537 240.152 26.2645 239.086 26.2645C238.809 26.2645 238.577 26.1734 238.345 26.1279C237.094 25.2171 235.519 24.625 233.852 24.625C229.914 24.625 227.227 27.7674 227.227 31.6841C227.227 35.6008 229.96 38.6977 233.852 38.6977C235.797 38.6977 237.558 37.9235 238.855 36.6938C239.179 36.4661 239.596 36.3295 240.013 36.3295C241.078 36.3295 241.912 37.1492 241.912 38.1967C241.912 38.8798 241.495 39.4719 240.986 39.7907C239.087 41.3847 236.539 42.4322 233.898 42.4322C227.876 42.4322 222.965 37.5591 222.965 31.5475C222.965 25.5358 227.876 20.6628 233.898 20.6628C236.122 20.6172 238.299 21.3004 240.013 22.4845ZM250.807 38.6977C252.706 38.6977 254.328 37.0126 254.328 34.7355C254.328 32.4583 252.66 30.9554 250.807 30.9554C248.908 30.9554 247.425 32.5039 247.425 34.7355C247.425 36.9215 248.954 38.6977 250.807 38.6977ZM255.347 40.6105L255.254 40.1095C254.42 41.7035 251.78 42.4322 250.112 42.4322C246.128 42.4322 243.163 38.8798 243.163 34.6444C243.163 30.4545 246.174 26.9932 250.344 26.9932C251.038 26.9932 253.447 27.1754 255.3 29.3159L255.393 28.8149C255.393 27.9041 256.088 27.1754 257.015 27.1754C257.941 27.1754 258.682 27.9496 258.682 28.8149V40.5649C258.682 41.4758 257.941 42.2045 257.015 42.2045C256.042 42.25 255.347 41.4758 255.347 40.6105ZM270.31 38.6977C272.209 38.6977 273.692 36.9215 273.692 34.7355C273.692 32.4583 272.163 30.9554 270.31 30.9554C268.411 30.9554 266.789 32.4583 266.789 34.7355C266.789 37.0126 268.411 38.6977 270.31 38.6977ZM266.789 41.2025V46.531C266.789 47.7151 265.816 48.6715 264.658 48.6715C263.5 48.6715 262.527 47.7151 262.527 46.531V28.8605C262.527 27.9496 263.268 27.2209 264.195 27.2209C265.121 27.2209 265.816 27.9951 265.816 29.0426C267.391 27.4486 269.337 27.0388 270.82 27.0388C274.943 27.0388 278 30.4545 278 34.6899C278 38.8798 275.081 42.4777 271.051 42.4777C269.8 42.4322 267.947 42.0678 266.789 41.2025Z" fill="#B7B7B7"/>
</svg>
