<svg width="355" height="61" viewBox="0 0 355 61" fill="none" xmlns="http://www.w3.org/2000/svg">
<g clip-path="url(#clip0_416_918)">
<path d="M39.7654 44.3687C37.0946 47.0124 33.692 48.8127 29.9877 49.542C26.2835 50.2712 22.444 49.8967 18.9548 48.4657C15.4656 47.0346 12.4834 44.6114 10.3852 41.5025C8.28698 38.3935 7.16708 34.7384 7.16708 30.9993C7.16708 27.2602 8.28698 23.6051 10.3852 20.4961C12.4834 17.3871 15.4656 14.9639 18.9548 13.5329C22.444 12.1019 26.2835 11.7273 29.9877 12.4566C33.692 13.1858 37.0946 14.9861 39.7654 17.6299C40.079 17.9409 40.3802 18.2606 40.6687 18.5889L46.9609 14.9919C46.2994 14.1569 45.5873 13.3624 44.8287 12.6128C41.1551 8.97266 36.4736 6.49297 31.3763 5.48742C26.279 4.48187 20.995 4.99564 16.1927 6.96374C11.3903 8.93185 7.28552 12.2659 4.39746 16.544C1.5094 20.8221 -0.032135 25.8522 -0.032135 30.9979C-0.032135 36.1435 1.5094 41.1736 4.39746 45.4517C7.28552 49.7299 11.3903 53.0639 16.1927 55.032C20.995 57.0001 26.279 57.5139 31.3763 56.5083C36.4736 55.5028 41.1551 53.0231 44.8287 49.3829C45.6009 48.6178 46.3248 47.8063 46.9965 46.9532L40.7085 43.359C40.4086 43.7052 40.0942 44.0417 39.7654 44.3687Z" fill="#A8A8A8"/>
<path d="M26.262 40.9834C20.7018 40.9834 16.1779 36.5047 16.1779 31C16.1779 25.4953 20.7018 21.0165 26.262 21.0165C28.5576 21.0144 30.7846 21.7918 32.5712 23.219L39.039 19.5241C38.8523 19.32 38.6599 19.1202 38.4619 18.9246C36.0495 16.5361 32.9759 14.9095 29.6297 14.2505C26.2836 13.5915 22.8152 13.9296 19.6632 15.2222C16.5111 16.5147 13.817 18.7036 11.9216 21.512C10.0261 24.3205 9.01439 27.6223 9.01439 31C9.01439 34.3777 10.0261 37.6795 11.9216 40.4879C13.817 43.2964 16.5111 45.4852 19.6632 46.7778C22.8152 48.0703 26.2836 48.4085 29.6297 47.7494C32.9759 47.0904 36.0495 45.4638 38.4619 43.0754C38.6751 42.8643 38.8821 42.6485 39.083 42.428L32.6231 38.7388C30.8282 40.1919 28.5806 40.9851 26.262 40.9834Z" fill="#A8A8A8"/>
</g>
<path d="M75.204 40.78C73.7107 40.78 72.32 40.5373 71.032 40.052C69.7627 39.548 68.652 38.848 67.7 37.952C66.7667 37.0373 66.0387 35.964 65.516 34.732C64.9933 33.5 64.732 32.156 64.732 30.7C64.732 29.244 64.9933 27.9 65.516 26.668C66.0387 25.436 66.776 24.372 67.728 23.476C68.68 22.5613 69.7907 21.8613 71.06 21.376C72.3293 20.872 73.72 20.62 75.232 20.62C76.8373 20.62 78.3027 20.9 79.628 21.46C80.9533 22.0013 82.0733 22.8133 82.988 23.896L80.636 26.108C79.9267 25.3427 79.1333 24.7733 78.256 24.4C77.3787 24.008 76.4267 23.812 75.4 23.812C74.3733 23.812 73.4307 23.98 72.572 24.316C71.732 24.652 70.9947 25.128 70.36 25.744C69.744 26.36 69.2587 27.088 68.904 27.928C68.568 28.768 68.4 29.692 68.4 30.7C68.4 31.708 68.568 32.632 68.904 33.472C69.2587 34.312 69.744 35.04 70.36 35.656C70.9947 36.272 71.732 36.748 72.572 37.084C73.4307 37.42 74.3733 37.588 75.4 37.588C76.4267 37.588 77.3787 37.4013 78.256 37.028C79.1333 36.636 79.9267 36.048 80.636 35.264L82.988 37.504C82.0733 38.568 80.9533 39.38 79.628 39.94C78.3027 40.5 76.828 40.78 75.204 40.78ZM92.3129 40.696C90.7822 40.696 89.4195 40.3693 88.2249 39.716C87.0302 39.044 86.0875 38.1293 85.3969 36.972C84.7062 35.8147 84.3609 34.4987 84.3609 33.024C84.3609 31.5307 84.7062 30.2147 85.3969 29.076C86.0875 27.9187 87.0302 27.0133 88.2249 26.36C89.4195 25.7067 90.7822 25.38 92.3129 25.38C93.8622 25.38 95.2342 25.7067 96.4289 26.36C97.6422 27.0133 98.5849 27.9093 99.2569 29.048C99.9475 30.1867 100.293 31.512 100.293 33.024C100.293 34.4987 99.9475 35.8147 99.2569 36.972C98.5849 38.1293 97.6422 39.044 96.4289 39.716C95.2342 40.3693 93.8622 40.696 92.3129 40.696ZM92.3129 37.7C93.1715 37.7 93.9369 37.5133 94.6089 37.14C95.2809 36.7667 95.8035 36.2253 96.1769 35.516C96.5689 34.8067 96.7649 33.976 96.7649 33.024C96.7649 32.0533 96.5689 31.2227 96.1769 30.532C95.8035 29.8227 95.2809 29.2813 94.6089 28.908C93.9369 28.5347 93.1809 28.348 92.3409 28.348C91.4822 28.348 90.7169 28.5347 90.0449 28.908C89.3915 29.2813 88.8689 29.8227 88.4769 30.532C88.0849 31.2227 87.8889 32.0533 87.8889 33.024C87.8889 33.976 88.0849 34.8067 88.4769 35.516C88.8689 36.2253 89.3915 36.7667 90.0449 37.14C90.7169 37.5133 91.4729 37.7 92.3129 37.7ZM122.512 25.38C123.706 25.38 124.761 25.6133 125.676 26.08C126.609 26.5467 127.337 27.2653 127.86 28.236C128.382 29.188 128.644 30.42 128.644 31.932V40.5H125.144V32.38C125.144 31.0547 124.854 30.0653 124.276 29.412C123.697 28.7587 122.866 28.432 121.784 28.432C121.018 28.432 120.337 28.6 119.74 28.936C119.161 29.272 118.704 29.7667 118.368 30.42C118.05 31.0733 117.892 31.904 117.892 32.912V40.5H114.392V32.38C114.392 31.0547 114.102 30.0653 113.524 29.412C112.945 28.7587 112.114 28.432 111.032 28.432C110.266 28.432 109.585 28.6 108.988 28.936C108.409 29.272 107.952 29.7667 107.616 30.42C107.298 31.0733 107.14 31.904 107.14 32.912V40.5H103.64V25.548H106.972V29.524L106.384 28.348C106.888 27.3773 107.616 26.64 108.568 26.136C109.538 25.632 110.64 25.38 111.872 25.38C113.272 25.38 114.485 25.7253 115.512 26.416C116.557 27.1067 117.248 28.152 117.584 29.552L116.212 29.076C116.697 27.956 117.5 27.06 118.62 26.388C119.74 25.716 121.037 25.38 122.512 25.38ZM141.404 40.696C140.191 40.696 139.08 40.416 138.072 39.856C137.083 39.296 136.29 38.456 135.692 37.336C135.114 36.1973 134.824 34.76 134.824 33.024C134.824 31.2693 135.104 29.832 135.664 28.712C136.243 27.592 137.027 26.7613 138.016 26.22C139.006 25.66 140.135 25.38 141.404 25.38C142.879 25.38 144.176 25.6973 145.296 26.332C146.435 26.9667 147.331 27.8533 147.984 28.992C148.656 30.1307 148.992 31.4747 148.992 33.024C148.992 34.5733 148.656 35.9267 147.984 37.084C147.331 38.2227 146.435 39.1093 145.296 39.744C144.176 40.3787 142.879 40.696 141.404 40.696ZM133.116 45.932V25.548H136.448V29.076L136.336 33.052L136.616 37.028V45.932H133.116ZM141.012 37.7C141.852 37.7 142.599 37.5133 143.252 37.14C143.924 36.7667 144.456 36.2253 144.848 35.516C145.24 34.8067 145.436 33.976 145.436 33.024C145.436 32.0533 145.24 31.2227 144.848 30.532C144.456 29.8227 143.924 29.2813 143.252 28.908C142.599 28.5347 141.852 28.348 141.012 28.348C140.172 28.348 139.416 28.5347 138.744 28.908C138.072 29.2813 137.54 29.8227 137.148 30.532C136.756 31.2227 136.56 32.0533 136.56 33.024C136.56 33.976 136.756 34.8067 137.148 35.516C137.54 36.2253 138.072 36.7667 138.744 37.14C139.416 37.5133 140.172 37.7 141.012 37.7ZM161.332 40.5V37.476L161.136 36.832V31.54C161.136 30.5133 160.828 29.72 160.212 29.16C159.596 28.5813 158.663 28.292 157.412 28.292C156.572 28.292 155.742 28.4227 154.92 28.684C154.118 28.9453 153.436 29.3093 152.876 29.776L151.504 27.228C152.307 26.612 153.259 26.1547 154.36 25.856C155.48 25.5387 156.638 25.38 157.832 25.38C159.998 25.38 161.668 25.9027 162.844 26.948C164.039 27.9747 164.636 29.5707 164.636 31.736V40.5H161.332ZM156.628 40.696C155.508 40.696 154.528 40.5093 153.688 40.136C152.848 39.744 152.195 39.212 151.728 38.54C151.28 37.8493 151.056 37.0747 151.056 36.216C151.056 35.376 151.252 34.62 151.644 33.948C152.055 33.276 152.718 32.744 153.632 32.352C154.547 31.96 155.76 31.764 157.272 31.764H161.612V34.088H157.524C156.33 34.088 155.527 34.284 155.116 34.676C154.706 35.0493 154.5 35.516 154.5 36.076C154.5 36.7107 154.752 37.2147 155.256 37.588C155.76 37.9613 156.46 38.148 157.356 38.148C158.215 38.148 158.98 37.952 159.652 37.56C160.343 37.168 160.838 36.5893 161.136 35.824L161.724 37.924C161.388 38.8013 160.782 39.4827 159.904 39.968C159.046 40.4533 157.954 40.696 156.628 40.696ZM169.128 40.5V25.548H172.46V29.664L172.068 28.46C172.516 27.452 173.216 26.6867 174.168 26.164C175.139 25.6413 176.343 25.38 177.78 25.38V28.712C177.631 28.6747 177.491 28.656 177.36 28.656C177.229 28.6373 177.099 28.628 176.968 28.628C175.643 28.628 174.588 29.02 173.804 29.804C173.02 30.5693 172.628 31.7173 172.628 33.248V40.5H169.128ZM187.64 40.696C185.979 40.696 184.523 40.3693 183.272 39.716C182.04 39.044 181.079 38.1293 180.388 36.972C179.716 35.8147 179.38 34.4987 179.38 33.024C179.38 31.5307 179.707 30.2147 180.36 29.076C181.032 27.9187 181.947 27.0133 183.104 26.36C184.28 25.7067 185.615 25.38 187.108 25.38C188.564 25.38 189.862 25.6973 191 26.332C192.139 26.9667 193.035 27.8627 193.688 29.02C194.342 30.1773 194.668 31.54 194.668 33.108C194.668 33.2573 194.659 33.4253 194.64 33.612C194.64 33.7987 194.631 33.976 194.612 34.144H182.152V31.82H192.764L191.392 32.548C191.411 31.6893 191.234 30.9333 190.86 30.28C190.487 29.6267 189.974 29.1133 189.32 28.74C188.686 28.3667 187.948 28.18 187.108 28.18C186.25 28.18 185.494 28.3667 184.84 28.74C184.206 29.1133 183.702 29.636 183.328 30.308C182.974 30.9613 182.796 31.736 182.796 32.632V33.192C182.796 34.088 183.002 34.8813 183.412 35.572C183.823 36.2627 184.402 36.7947 185.148 37.168C185.895 37.5413 186.754 37.728 187.724 37.728C188.564 37.728 189.32 37.5973 189.992 37.336C190.664 37.0747 191.262 36.664 191.784 36.104L193.66 38.26C192.988 39.044 192.139 39.6507 191.112 40.08C190.104 40.4907 188.947 40.696 187.64 40.696ZM198.366 40.5V20.9H201.362L209.93 35.208H208.362L216.79 20.9H219.786L219.814 40.5H216.37L216.342 26.304H217.07L209.902 38.26H208.278L200.998 26.304H201.838V40.5H198.366ZM233.985 40.5V37.476L233.789 36.832V31.54C233.789 30.5133 233.481 29.72 232.865 29.16C232.249 28.5813 231.315 28.292 230.065 28.292C229.225 28.292 228.394 28.4227 227.573 28.684C226.77 28.9453 226.089 29.3093 225.529 29.776L224.157 27.228C224.959 26.612 225.911 26.1547 227.013 25.856C228.133 25.5387 229.29 25.38 230.485 25.38C232.65 25.38 234.321 25.9027 235.497 26.948C236.691 27.9747 237.289 29.5707 237.289 31.736V40.5H233.985ZM229.281 40.696C228.161 40.696 227.181 40.5093 226.341 40.136C225.501 39.744 224.847 39.212 224.381 38.54C223.933 37.8493 223.709 37.0747 223.709 36.216C223.709 35.376 223.905 34.62 224.297 33.948C224.707 33.276 225.37 32.744 226.285 32.352C227.199 31.96 228.413 31.764 229.925 31.764H234.265V34.088H230.177C228.982 34.088 228.179 34.284 227.769 34.676C227.358 35.0493 227.153 35.516 227.153 36.076C227.153 36.7107 227.405 37.2147 227.909 37.588C228.413 37.9613 229.113 38.148 230.009 38.148C230.867 38.148 231.633 37.952 232.305 37.56C232.995 37.168 233.49 36.5893 233.789 35.824L234.377 37.924C234.041 38.8013 233.434 39.4827 232.557 39.968C231.698 40.4533 230.606 40.696 229.281 40.696ZM241.78 40.5V25.548H245.112V29.664L244.72 28.46C245.168 27.452 245.868 26.6867 246.82 26.164C247.791 25.6413 248.995 25.38 250.432 25.38V28.712C250.283 28.6747 250.143 28.656 250.012 28.656C249.882 28.6373 249.751 28.628 249.62 28.628C248.295 28.628 247.24 29.02 246.456 29.804C245.672 30.5693 245.28 31.7173 245.28 33.248V40.5H241.78ZM256.257 37.168L256.341 32.772L264.153 25.548H268.353L261.717 32.212L259.869 33.752L256.257 37.168ZM253.401 40.5V19.724H256.901V40.5H253.401ZM264.685 40.5L259.225 33.752L261.437 30.952L268.941 40.5H264.685ZM277.601 40.696C275.94 40.696 274.484 40.3693 273.233 39.716C272.001 39.044 271.04 38.1293 270.349 36.972C269.677 35.8147 269.341 34.4987 269.341 33.024C269.341 31.5307 269.668 30.2147 270.321 29.076C270.993 27.9187 271.908 27.0133 273.065 26.36C274.241 25.7067 275.576 25.38 277.069 25.38C278.525 25.38 279.823 25.6973 280.961 26.332C282.1 26.9667 282.996 27.8627 283.649 29.02C284.303 30.1773 284.629 31.54 284.629 33.108C284.629 33.2573 284.62 33.4253 284.601 33.612C284.601 33.7987 284.592 33.976 284.573 34.144H272.113V31.82H282.725L281.353 32.548C281.372 31.6893 281.195 30.9333 280.821 30.28C280.448 29.6267 279.935 29.1133 279.281 28.74C278.647 28.3667 277.909 28.18 277.069 28.18C276.211 28.18 275.455 28.3667 274.801 28.74C274.167 29.1133 273.663 29.636 273.289 30.308C272.935 30.9613 272.757 31.736 272.757 32.632V33.192C272.757 34.088 272.963 34.8813 273.373 35.572C273.784 36.2627 274.363 36.7947 275.109 37.168C275.856 37.5413 276.715 37.728 277.685 37.728C278.525 37.728 279.281 37.5973 279.953 37.336C280.625 37.0747 281.223 36.664 281.745 36.104L283.621 38.26C282.949 39.044 282.1 39.6507 281.073 40.08C280.065 40.4907 278.908 40.696 277.601 40.696ZM293.619 40.696C291.977 40.696 290.707 40.276 289.811 39.436C288.915 38.5773 288.467 37.3173 288.467 35.656V22.244H291.967V35.572C291.967 36.2813 292.145 36.832 292.499 37.224C292.873 37.616 293.386 37.812 294.039 37.812C294.823 37.812 295.477 37.6067 295.999 37.196L296.979 39.688C296.569 40.024 296.065 40.276 295.467 40.444C294.87 40.612 294.254 40.696 293.619 40.696ZM286.003 28.46V25.66H295.971V28.46H286.003ZM309.267 40.78C307.773 40.78 306.383 40.5373 305.095 40.052C303.825 39.548 302.715 38.848 301.763 37.952C300.829 37.0373 300.101 35.964 299.579 34.732C299.056 33.5 298.795 32.156 298.795 30.7C298.795 29.244 299.056 27.9 299.579 26.668C300.101 25.436 300.839 24.372 301.791 23.476C302.743 22.5613 303.853 21.8613 305.123 21.376C306.392 20.872 307.783 20.62 309.295 20.62C310.9 20.62 312.365 20.9 313.691 21.46C315.016 22.0013 316.136 22.8133 317.051 23.896L314.699 26.108C313.989 25.3427 313.196 24.7733 312.319 24.4C311.441 24.008 310.489 23.812 309.463 23.812C308.436 23.812 307.493 23.98 306.635 24.316C305.795 24.652 305.057 25.128 304.423 25.744C303.807 26.36 303.321 27.088 302.967 27.928C302.631 28.768 302.463 29.692 302.463 30.7C302.463 31.708 302.631 32.632 302.967 33.472C303.321 34.312 303.807 35.04 304.423 35.656C305.057 36.272 305.795 36.748 306.635 37.084C307.493 37.42 308.436 37.588 309.463 37.588C310.489 37.588 311.441 37.4013 312.319 37.028C313.196 36.636 313.989 36.048 314.699 35.264L317.051 37.504C316.136 38.568 315.016 39.38 313.691 39.94C312.365 40.5 310.891 40.78 309.267 40.78ZM329.278 40.5V37.476L329.082 36.832V31.54C329.082 30.5133 328.774 29.72 328.158 29.16C327.542 28.5813 326.608 28.292 325.358 28.292C324.518 28.292 323.687 28.4227 322.866 28.684C322.063 28.9453 321.382 29.3093 320.822 29.776L319.45 27.228C320.252 26.612 321.204 26.1547 322.306 25.856C323.426 25.5387 324.583 25.38 325.778 25.38C327.943 25.38 329.614 25.9027 330.79 26.948C331.984 27.9747 332.582 29.5707 332.582 31.736V40.5H329.278ZM324.574 40.696C323.454 40.696 322.474 40.5093 321.634 40.136C320.794 39.744 320.14 39.212 319.674 38.54C319.226 37.8493 319.002 37.0747 319.002 36.216C319.002 35.376 319.198 34.62 319.59 33.948C320 33.276 320.663 32.744 321.578 32.352C322.492 31.96 323.706 31.764 325.218 31.764H329.558V34.088H325.47C324.275 34.088 323.472 34.284 323.062 34.676C322.651 35.0493 322.446 35.516 322.446 36.076C322.446 36.7107 322.698 37.2147 323.202 37.588C323.706 37.9613 324.406 38.148 325.302 38.148C326.16 38.148 326.926 37.952 327.598 37.56C328.288 37.168 328.783 36.5893 329.082 35.824L329.67 37.924C329.334 38.8013 328.727 39.4827 327.85 39.968C326.991 40.4533 325.899 40.696 324.574 40.696ZM345.361 40.696C344.148 40.696 343.037 40.416 342.029 39.856C341.04 39.296 340.247 38.456 339.649 37.336C339.071 36.1973 338.781 34.76 338.781 33.024C338.781 31.2693 339.061 29.832 339.621 28.712C340.2 27.592 340.984 26.7613 341.973 26.22C342.963 25.66 344.092 25.38 345.361 25.38C346.836 25.38 348.133 25.6973 349.253 26.332C350.392 26.9667 351.288 27.8533 351.941 28.992C352.613 30.1307 352.949 31.4747 352.949 33.024C352.949 34.5733 352.613 35.9267 351.941 37.084C351.288 38.2227 350.392 39.1093 349.253 39.744C348.133 40.3787 346.836 40.696 345.361 40.696ZM337.073 45.932V25.548H340.405V29.076L340.293 33.052L340.573 37.028V45.932H337.073ZM344.969 37.7C345.809 37.7 346.556 37.5133 347.209 37.14C347.881 36.7667 348.413 36.2253 348.805 35.516C349.197 34.8067 349.393 33.976 349.393 33.024C349.393 32.0533 349.197 31.2227 348.805 30.532C348.413 29.8227 347.881 29.2813 347.209 28.908C346.556 28.5347 345.809 28.348 344.969 28.348C344.129 28.348 343.373 28.5347 342.701 28.908C342.029 29.2813 341.497 29.8227 341.105 30.532C340.713 31.2227 340.517 32.0533 340.517 33.024C340.517 33.976 340.713 34.8067 341.105 35.516C341.497 36.2253 342.029 36.7667 342.701 37.14C343.373 37.5133 344.129 37.7 344.969 37.7Z" fill="#A8A8A8"/>
<defs>
<clipPath id="clip0_416_918">
<rect width="47" height="52" fill="white" transform="translate(0.5 4.5)"/>
</clipPath>
</defs>
</svg>
