<svg width="186" height="61" viewBox="0 0 186 61" fill="none" xmlns="http://www.w3.org/2000/svg">
<g clip-path="url(#clip0_439_671)">
<path opacity="0.958" fill-rule="evenodd" clip-rule="evenodd" d="M18.6643 6.02902C24.6884 5.72981 29.7998 7.71066 33.9966 11.9716C34.5338 12.5577 35.0238 13.1852 35.4618 13.8482C40.7031 18.743 42.4823 24.6855 40.7994 31.6758C39.8428 34.9036 38.0992 37.6142 35.5665 39.8077C35.4964 41.5801 35.4964 43.3524 35.5665 45.1248C37.847 46.9513 38.4048 49.2095 37.241 51.9014C35.6502 54.2596 33.5047 55.0415 30.8046 54.2471L3.48886 44.5514C0.508208 42.6623 -0.172068 40.1434 1.44804 36.9929C2.41717 35.7199 3.69085 34.938 5.26805 34.6471C1.80178 29.524 1.05138 24.0151 3.0179 18.1226C5.93576 11.1323 11.1498 7.10077 18.6643 6.02902ZM19.8155 8.42689C24.7993 8.40709 28.9856 10.1972 32.3744 13.796C27.2075 15.6447 22.0443 17.5039 16.8851 19.3737C16.8992 17.7054 16.8818 16.0371 16.8327 14.3694C16.5156 13.4729 15.9055 13.1789 15.0012 13.4833C14.7325 13.6781 14.5313 13.9513 14.4256 14.2652L14.321 20.2077C10.5616 21.3108 8.74792 23.8129 8.87874 27.7141C9.21679 29.9379 10.3513 31.6237 12.2801 32.7705C19.1377 35.279 26.0104 37.7464 32.8977 40.1726C33.0003 41.4331 33.0359 42.7019 33.0024 43.978C24.6075 41.087 16.2346 38.133 7.88449 35.1163C7.80885 34.6969 7.7216 34.2797 7.62285 33.8652C4.15658 28.985 3.49305 23.7378 5.63435 18.1226C8.4957 12.1884 13.222 8.95651 19.8155 8.42689ZM33.735 15.829C33.8767 15.8124 34.0204 15.8303 34.1536 15.8811C38.9333 20.6988 40.1714 26.3119 37.869 32.7184C36.9865 34.7666 35.6438 36.5857 33.9443 38.0354C33.6158 37.9098 33.3003 37.7527 33.0024 37.5663C37.6314 33.1385 38.9396 27.8736 36.927 21.7716C36.0901 19.624 34.7435 17.7102 33.0024 16.1939C33.2703 16.1001 33.5152 15.9791 33.735 15.829ZM14.8966 22.6056C18.4026 22.6056 20.0593 24.3436 19.8678 27.8184C18.9573 30.5394 17.0923 31.5997 14.2686 30.9982C11.7945 29.9108 10.8704 28.0509 11.4952 25.4205C12.1577 23.9026 13.2911 22.9643 14.8966 22.6056ZM15.4199 25.8375C16.3879 25.8553 16.7898 26.3421 16.6234 27.2971C16.231 27.9279 15.6899 28.0842 15.0012 27.7663C14.4832 27.3242 14.3963 26.8207 14.7396 26.2546C14.9269 26.0335 15.153 25.8938 15.4199 25.8375ZM4.95407 37.2014C5.62097 37.1624 6.29008 37.215 6.94257 37.3577C16.0702 40.5622 25.1756 43.8289 34.2583 47.1577C35.5592 48.3254 35.7507 49.663 34.8339 51.1716C34.0385 52.016 33.0788 52.3111 31.9558 52.0577L4.74476 42.4663C2.96348 41.4498 2.56264 40.0423 3.54119 38.2439C3.92302 37.7903 4.40716 37.433 4.95407 37.2014ZM18.141 43.7694C19.2985 44.1218 20.4152 44.5566 21.49 45.0726C21.4037 45.3583 21.2614 45.624 21.0714 45.8546L17.827 44.6556C18.0049 44.3866 18.1096 44.0906 18.141 43.7694Z" fill="#AAAAAA"/>
<path opacity="0.913" fill-rule="evenodd" clip-rule="evenodd" d="M15.1057 24.0654C16.8283 23.9591 17.9272 24.7243 18.4024 26.359C18.4568 28.736 17.2888 29.8307 14.8964 29.6431C13.2585 29.0394 12.5782 27.8759 12.8555 26.1505C13.2449 25.0631 13.9953 24.3677 15.1057 24.0654ZM15.4196 25.8377C15.1517 25.8952 14.9116 26.0424 14.7394 26.2548C14.3961 26.8209 14.483 27.3244 15.001 27.7665C15.6897 28.0844 16.2307 27.9281 16.6232 27.2973C16.7896 26.3423 16.3877 25.8555 15.4196 25.8377Z" fill="#AAAAAA"/>
<path opacity="0.926" fill-rule="evenodd" clip-rule="evenodd" d="M5.47711 37.8271C7.2563 37.8803 8.04123 38.7841 7.83191 40.5377C7.07 41.9744 5.9711 42.3049 4.53519 41.5282C3.75026 40.7223 3.59327 39.8006 4.06423 38.7654C4.4083 38.2953 4.90919 37.9627 5.47711 37.8271Z" fill="#AAAAAA"/>
<path opacity="0.914" fill-rule="evenodd" clip-rule="evenodd" d="M9.97743 40.5377C12.2448 41.198 14.4799 41.9634 16.6755 42.8313C17.1266 42.0515 17.7891 41.7909 18.664 42.0494L22.641 43.509C23.1853 43.9573 23.4302 44.514 23.3736 45.1771C25.2997 45.8518 27.2186 46.5469 29.1298 47.2622C29.6688 48.0483 29.4762 48.5862 28.5542 48.8781C26.5903 48.2121 24.6365 47.517 22.6934 46.793C22.258 47.5405 21.6122 47.8012 20.7572 47.575L17.1988 46.3239C16.3909 45.9694 15.9722 45.3439 15.9429 44.4473L9.66346 42.1537C9.17575 41.5021 9.28041 40.9641 9.97743 40.5377ZM18.1407 43.7696C18.111 44.0863 18.0032 44.3907 17.8268 44.6558L21.0712 45.8547C21.2585 45.6296 21.3977 45.3689 21.4898 45.0728C20.4087 44.5533 19.2891 44.1177 18.1407 43.7696Z" fill="#AAAAAA"/>
<path opacity="0.854" fill-rule="evenodd" clip-rule="evenodd" d="M31.1183 48.0441C31.9744 48.0482 32.3061 48.4653 32.1125 49.2951C31.8791 49.7507 31.5128 49.9071 31.0136 49.7643C30.5353 49.4995 30.3783 49.1002 30.5426 48.5653C30.6839 48.3308 30.8754 48.1577 31.1183 48.0441Z" fill="#AAAAAA"/>
<path opacity="0.838" fill-rule="evenodd" clip-rule="evenodd" d="M33.4208 48.8781C34.2549 48.8927 34.6212 49.3097 34.5197 50.1292C33.9085 50.8485 33.3496 50.8131 32.8452 50.0249C32.7583 49.5026 32.9498 49.12 33.4208 48.8781Z" fill="#AAAAAA"/>
</g>
<g clip-path="url(#clip1_439_671)">
<path opacity="0.987" fill-rule="evenodd" clip-rule="evenodd" d="M57.1414 20.2486C60.5085 20.2393 63.8752 20.2486 67.2424 20.2763C71.7387 20.8494 74.6449 23.2533 75.9608 27.4881C76.717 30.5281 76.3406 33.4206 74.8322 36.1644C73.0507 38.811 70.5396 40.3119 67.2988 40.6684C63.913 40.696 60.5272 40.7054 57.1414 40.696V20.2486ZM62.2765 24.6697C63.7826 24.6487 65.2876 24.6763 66.7909 24.7526C69.0605 25.2621 70.4431 26.6343 70.9385 28.8697C71.377 30.8824 71.0192 32.7425 69.8664 34.4513C69.0775 35.3908 68.0713 35.971 66.8474 36.1921C65.3249 36.2683 63.8013 36.296 62.2765 36.275V24.6697Z" fill="#A8A8A8"/>
<path opacity="0.986" fill-rule="evenodd" clip-rule="evenodd" d="M86.8236 20.2487H101.495V24.5039H91.8459V28.2618H100.141V32.3513H91.8459V36.4408H101.778V40.696H86.8236V20.2487Z" fill="#A8A8A8"/>
<path opacity="0.984" fill-rule="evenodd" clip-rule="evenodd" d="M110.299 20.2486C112.386 20.2393 114.474 20.2486 116.562 20.2763C117.994 22.3349 119.433 24.3888 120.879 26.4381L125.027 20.2763C127.021 20.2304 129.015 20.2393 131.008 20.3039C128.59 23.7135 126.182 27.1306 123.785 30.5552C126.28 33.9221 128.782 37.2839 131.291 40.6408C129.203 40.7054 127.115 40.7143 125.027 40.6684C123.525 38.5639 122.029 36.4546 120.541 34.3408L116.111 40.6684C114.117 40.7054 112.123 40.7054 110.129 40.6684L117.634 30.2236C115.142 26.9323 112.696 23.607 110.299 20.2486Z" fill="#A8A8A8"/>
<path opacity="0.987" fill-rule="evenodd" clip-rule="evenodd" d="M140.827 20.2487H155.443V40.696H140.489V36.4408H150.42V32.3513H142.125V28.2618H150.42V24.5039H140.827V20.2487Z" fill="#A8A8A8"/>
<path opacity="0.988" fill-rule="evenodd" clip-rule="evenodd" d="M175.532 20.2487H185.633V40.696C182.247 40.7054 178.861 40.696 175.475 40.6684C171.027 40.0892 168.14 37.7035 166.813 33.5118C166.073 30.5889 166.392 27.7888 167.773 25.1118C169.544 22.2591 172.13 20.6377 175.532 20.2487ZM176.66 24.6697H180.498V36.275C178.973 36.296 177.449 36.2683 175.927 36.1921C173.806 35.6991 172.461 34.4187 171.892 32.3513C171.44 30.4762 171.665 28.689 172.569 26.9908C173.551 25.5661 174.915 24.7924 176.66 24.6697Z" fill="#A8A8A8"/>
</g>
<defs>
<clipPath id="clip0_439_671">
<rect width="41" height="49" fill="white" transform="translate(0.5 6)"/>
</clipPath>
<clipPath id="clip1_439_671">
<rect width="128" height="21" fill="white" transform="translate(57.5 20)"/>
</clipPath>
</defs>
</svg>
