<svg width="33" height="36" viewBox="0 0 33 36" fill="none" xmlns="http://www.w3.org/2000/svg">
<path fill-rule="evenodd" clip-rule="evenodd" d="M12.4125 3.80945C10.4945 4.80249 8.92536 5.64279 8.92569 5.67697C8.92655 5.76518 13.5289 8.0818 13.6923 8.07616C13.7666 8.07369 14.3057 7.82706 14.8901 7.52817L15.953 6.98484L17.1138 7.57785L18.2745 8.17098L20.1753 7.32204C23.0396 6.04281 23.3371 5.90263 23.2904 5.85553C23.2286 5.79305 22.2012 5.24451 19.414 3.78605C18.0669 3.08117 16.7595 2.39005 16.5085 2.2502C16.2575 2.11035 16.0179 1.99785 15.9761 2.00003C15.9342 2.00221 14.3306 2.81646 12.4125 3.80945ZM4.00022 8.13909L2.0036 9.16412V13.6628C2.0036 16.1371 2.02982 18.1614 2.06198 18.1614C2.09403 18.1614 3.07637 17.7382 4.2449 17.2209L6.36952 16.2804V11.5385L7.40775 12.1007C8.2078 12.5335 9.00832 12.9655 9.80933 13.3965L11.1726 14.1302L11.7793 13.8575C12.1597 13.6863 12.5394 13.5133 12.9184 13.3387C13.2112 13.2032 13.93 12.8814 14.5156 12.6236C15.1013 12.3656 15.6434 12.1061 15.7203 12.047C15.8224 11.9685 14.5772 11.2845 11.1146 9.51727C8.50454 8.18511 6.2853 7.0994 6.18296 7.1046C6.08061 7.10981 5.09838 7.57527 4.00022 8.13909ZM23.6503 8.42694C22.2905 9.03708 21.1769 9.56067 21.1757 9.59053C21.1745 9.62035 21.9156 10.0583 22.8228 10.5637C23.7298 11.0692 24.472 11.5098 24.472 11.5429C24.472 11.576 23.6693 11.9626 22.6884 12.4021C21.7073 12.8415 19.2276 13.9545 17.1778 14.8755L10.3095 17.9612C8.58175 18.7374 7.0244 19.4371 6.84872 19.5162C3.31975 21.104 2.34978 21.5446 2.21657 21.6202C2.08263 21.6964 2.05229 22.1387 2.02845 24.3589L2 27.0069L3.78546 27.9111L5.57089 28.8152L8.04666 27.7047C9.40838 27.094 10.5224 26.5623 10.5224 26.5231C10.5224 26.4841 10.2708 26.3211 9.9634 26.1608C9.65585 26.0006 9.02098 25.6458 8.55245 25.3723C8.08395 25.0988 7.61679 24.8479 7.51422 24.8146C7.41169 24.7814 7.32928 24.7233 7.33096 24.6855C7.33266 24.6477 8.42288 24.133 9.75351 23.5416C12.338 22.3931 14.3159 21.5079 18.5621 19.5994C20.4608 18.7462 22.3598 17.8935 24.259 17.0413C25.9282 16.2924 27.8689 15.4179 28.5717 15.0978L29.8495 14.5159L29.8779 11.8377L29.9065 9.15969L28.0956 8.23586C27.0996 7.72781 26.2482 7.31336 26.2036 7.31487C26.159 7.31628 25.01 7.81665 23.6503 8.42694ZM29.3644 18.0887C29.0975 18.2182 28.5704 18.4608 28.193 18.6276C27.8157 18.7945 27.0996 19.1156 26.6017 19.3414L25.6966 19.7517L25.6759 22.1029C25.6645 23.396 25.6166 24.4483 25.5695 24.4414C25.4623 24.4256 23.7659 23.5609 22.0607 22.6527C20.8299 21.9973 20.7526 21.9713 20.4634 22.1136C20.2962 22.196 19.2968 22.6414 18.2426 23.1037C17.1884 23.5659 16.2915 23.9743 16.2493 24.0113C16.2073 24.0482 18.329 25.1911 20.9644 26.5513L25.7559 29.0243L27.8028 27.9719C28.9284 27.3932 29.8856 26.8653 29.9297 26.7989C30.0289 26.6496 30.0204 17.8326 29.9211 17.8445C29.8818 17.8492 29.6312 17.9591 29.3644 18.0887ZM18.0297 28.4376C17.6746 28.5893 17.3197 28.7412 16.9648 28.8934C15.8932 29.3541 16.1032 29.3694 14.8284 28.7386C13.9793 28.3185 13.6133 28.1889 13.4544 28.2518C13.3352 28.299 12.3097 28.7576 11.1752 29.2709C10.0408 29.7842 9.07327 30.2041 9.02514 30.2041C8.54918 30.2041 9.34046 30.674 12.3938 32.2049L15.9747 34L17.4814 33.2607C18.31 32.8541 19.9814 32.0398 21.1957 31.4513C22.4098 30.8626 23.3882 30.3657 23.3699 30.3469C23.3515 30.3283 22.3341 29.809 21.109 29.1931L18.8816 28.0734L18.0297 28.4376Z" fill="white"/>
</svg>
