<svg width="36" height="36" viewBox="0 0 36 36" fill="none" xmlns="http://www.w3.org/2000/svg">
<path d="M30.4954 6.34171C28.1651 5.2514 25.6734 4.45901 23.0683 4.00781C22.7484 4.58623 22.3746 5.36421 22.117 5.98309C19.3477 5.56664 16.604 5.56664 13.8857 5.98309C13.6281 5.36421 13.2458 4.58623 12.923 4.00781C10.3152 4.45901 7.82063 5.25431 5.49029 6.34748C0.789964 13.4503 -0.484217 20.3767 0.152875 27.2047C3.27038 29.5328 6.29161 30.947 9.26186 31.8725C9.99523 30.8631 10.6493 29.7902 11.2128 28.6594C10.1396 28.2516 9.11179 27.7484 8.14061 27.1642C8.39826 26.9734 8.65028 26.7738 8.89377 26.5685C14.8173 29.339 21.2533 29.339 27.1061 26.5685C27.3525 26.7738 27.6044 26.9734 27.8593 27.1642C26.8852 27.7513 25.8546 28.2545 24.7814 28.6623C25.3449 29.7902 25.9962 30.866 26.7323 31.8753C29.7054 30.9499 32.7295 29.5357 35.847 27.2047C36.5945 19.2893 34.57 12.4265 30.4954 6.34171ZM12.0198 23.0055C10.2416 23.0055 8.78333 21.3455 8.78333 19.324C8.78333 17.3024 10.2104 15.6395 12.0198 15.6395C13.8291 15.6395 15.2873 17.2995 15.2562 19.324C15.259 21.3455 13.8291 23.0055 12.0198 23.0055ZM23.9801 23.0055C22.2019 23.0055 20.7437 21.3455 20.7437 19.324C20.7437 17.3024 22.1707 15.6395 23.9801 15.6395C25.7894 15.6395 27.2477 17.2995 27.2165 19.324C27.2165 21.3455 25.7894 23.0055 23.9801 23.0055Z" fill="white"/>
</svg>
