<svg width="229" height="61" viewBox="0 0 229 61" fill="none" xmlns="http://www.w3.org/2000/svg">
<g clip-path="url(#clip0_416_945)">
<path d="M23.3972 8H5.41426V13.0176H23.7212C33.9278 13.1761 42.1902 20.9401 42.1902 30.5V30.7641C42.0282 40.2711 33.7117 47.9824 23.4512 47.9824H15.1348V25.7993H9.89649V52.9472H23.7752C36.8439 52.7359 47.3745 42.7535 47.3745 30.4472C47.3745 18.0352 36.6279 8 23.3972 8ZM8.54642 17.0845H0.5V48.2993H5.68427V22.0493H8.54642C8.0604 21.3099 7.79038 20.4648 7.79038 19.5669C7.79038 18.669 8.0604 17.7711 8.54642 17.0845ZM21.9931 17.0845H16.5388C17.0249 17.8239 17.2949 18.669 17.2949 19.5669C17.2949 20.4648 17.0249 21.3099 16.5388 22.0493H22.1011C27.1234 22.1021 31.1736 25.9577 31.1736 30.6056C31.1736 35.3063 27.0694 39.162 21.9391 39.162H19.563V44.1268H22.1551C29.9855 44.0211 36.3039 38 36.3039 30.6056C36.4119 23.1056 29.9315 17.0845 21.9931 17.0845Z" fill="#A8A8A8"/>
<path d="M12.5426 22.6303C14.3247 22.6303 15.7288 21.2571 15.7288 19.5669C15.7288 17.8768 14.3247 16.5035 12.5426 16.5035C10.7605 16.5035 9.35645 17.8768 9.35645 19.5669C9.35645 21.2571 10.8145 22.6303 12.5426 22.6303Z" fill="#A8A8A8"/>
<path d="M75.5522 41.7524H67.5V20.5386H75.5522C79.2649 20.5386 82.2061 21.5177 84.2794 23.4759C86.3527 25.4341 87.4135 27.9984 87.4135 31.1688C87.4135 34.3392 86.3527 36.9035 84.2794 38.8617C82.2061 40.7733 79.3131 41.7524 75.5522 41.7524ZM80.7596 36.0177C81.9168 34.8521 82.4954 33.2203 82.4954 31.1688C82.4954 29.1174 81.9168 27.4855 80.7596 26.3199C79.6024 25.1543 77.8184 24.5949 75.4075 24.5949H72.1288V37.7894H75.4557C77.8184 37.7894 79.6024 37.1833 80.7596 36.0177ZM103.807 39.7476C102.216 41.3328 100.094 42.1254 97.4908 42.1254C94.8871 42.1254 92.8137 41.3328 91.1744 39.7476C89.5832 38.1624 88.7635 36.2042 88.7635 33.9196C88.7635 31.635 89.5832 29.6768 91.1744 28.0916C92.7655 26.5064 94.8871 25.7138 97.4908 25.7138C100.094 25.7138 102.168 26.5064 103.807 28.0916C105.398 29.6768 106.218 31.635 106.218 33.9196C106.218 36.2508 105.398 38.1624 103.807 39.7476ZM94.5013 30.7026C93.7298 31.4952 93.2959 32.5675 93.2959 33.9662C93.2959 35.3649 93.6816 36.4373 94.5013 37.2299C95.2728 38.0225 96.2853 38.4421 97.539 38.4421C98.7444 38.4421 99.7569 38.0691 100.577 37.2299C101.348 36.4373 101.782 35.3649 101.782 33.9662C101.782 32.5675 101.396 31.4952 100.577 30.7026C99.8051 29.91 98.7926 29.4904 97.539 29.4904C96.2853 29.4904 95.2728 29.91 94.5013 30.7026ZM112.486 26.1334V28.045C113.354 26.5531 114.993 25.7604 117.404 25.7604C119.381 25.7604 120.876 26.3199 121.937 27.4389C122.997 28.5579 123.528 30.0965 123.528 32.008V41.7524H119.044V32.4743C119.044 30.4228 118.127 29.3971 116.247 29.3971C115.186 29.3971 114.318 29.7235 113.74 30.3296C113.161 30.9357 112.872 31.7749 112.872 32.8473V41.799H108.388V26.1334H112.486ZM140.5 39.7476C138.909 41.3328 136.787 42.1254 134.184 42.1254C131.58 42.1254 129.507 41.3328 127.867 39.7476C126.276 38.1624 125.456 36.2042 125.456 33.9196C125.456 31.635 126.276 29.6768 127.867 28.0916C129.458 26.5064 131.58 25.7138 134.184 25.7138C136.787 25.7138 138.861 26.5064 140.5 28.0916C142.091 29.6768 142.911 31.635 142.911 33.9196C142.911 36.2508 142.091 38.1624 140.5 39.7476ZM131.194 30.7026C130.423 31.4952 129.989 32.5675 129.989 33.9662C129.989 35.3649 130.375 36.4373 131.194 37.2299C131.966 38.0225 132.978 38.4421 134.232 38.4421C135.485 38.4421 136.45 38.0691 137.269 37.2299C138.041 36.4373 138.475 35.3649 138.475 33.9662C138.475 32.5675 138.089 31.4952 137.269 30.7026C136.498 29.91 135.485 29.4904 134.232 29.4904C132.978 29.4904 131.966 29.91 131.194 30.7026ZM154.386 25.9936V29.9566C154.049 29.91 153.76 29.8633 153.518 29.8633C152.168 29.8633 151.204 30.1897 150.529 30.8424C149.854 31.4952 149.517 32.5209 149.517 33.9662V41.7524H145.032V26.1334H149.179V28.1849C150.143 26.7395 151.686 25.9936 153.856 25.9936H154.386ZM161.619 42.1254C157.087 42.1254 154.724 40.3071 154.435 36.6704H159.015C159.063 37.2299 159.304 37.7428 159.738 38.1158C160.172 38.4887 160.847 38.6752 161.764 38.6752C162.631 38.6752 163.258 38.5354 163.692 38.3022C164.126 38.0225 164.367 37.6961 164.367 37.2765C164.367 36.8103 164.03 36.4373 163.403 36.2042C162.776 35.9711 162.005 35.7846 161.089 35.6447C160.172 35.5048 159.304 35.3183 158.388 35.0852C157.472 34.8521 156.701 34.3858 156.074 33.6865C155.447 32.9871 155.11 32.0547 155.11 30.8891C155.11 29.4437 155.736 28.2315 156.942 27.2058C158.147 26.2267 159.787 25.7138 161.764 25.7138C164.03 25.7138 165.717 26.2733 166.778 27.3457C167.887 28.418 168.466 29.6302 168.562 31.0289H164.223C164.174 30.4695 163.933 30.0498 163.499 29.6768C163.065 29.3039 162.487 29.1174 161.715 29.1174C160.992 29.1174 160.413 29.2572 160.028 29.537C159.642 29.8167 159.449 30.1897 159.449 30.6093C159.449 31.0756 159.787 31.4486 160.413 31.635C161.04 31.8682 161.812 32.008 162.728 32.1479C163.644 32.2878 164.512 32.4743 165.428 32.7074C166.344 32.9405 167.116 33.4068 167.742 34.1527C168.369 34.8521 168.707 35.8312 168.707 37.0434C168.707 38.4887 168.08 39.701 166.826 40.6334C165.476 41.6592 163.789 42.1254 161.619 42.1254ZM175.12 19.373V27.5788C176.084 26.3666 177.579 25.8071 179.7 25.8071C181.677 25.8071 183.172 26.3666 184.232 27.4855C185.293 28.6045 185.824 30.1431 185.824 32.0547V41.799H181.339V32.4743C181.339 30.4228 180.423 29.3971 178.543 29.3971C177.482 29.3971 176.614 29.7235 176.036 30.3296C175.457 30.9357 175.168 31.7749 175.168 32.8473V41.7524H170.684V19.373H175.12ZM193.056 23.3826C192.574 23.8489 191.899 24.082 191.079 24.082C190.26 24.082 189.633 23.8489 189.102 23.3826C188.62 22.9164 188.331 22.3103 188.331 21.5643C188.331 20.8183 188.572 20.2122 189.102 19.746C189.585 19.2331 190.26 19 191.079 19C191.899 19 192.526 19.2331 193.056 19.746C193.538 20.2588 193.828 20.865 193.828 21.5643C193.828 22.2637 193.538 22.9164 193.056 23.3826ZM188.813 41.7524V26.1334H193.297V41.799H188.813V41.7524ZM200.964 40.1206V48H196.48V26.1334H200.626V28.045C201.735 26.5531 203.471 25.7604 205.882 25.7604C208.244 25.7604 210.077 26.5531 211.427 28.0916C212.825 29.6302 213.5 31.5884 213.5 33.9662C213.5 36.344 212.825 38.2556 211.427 39.8408C210.028 41.3794 208.196 42.172 205.882 42.172C204.773 42.172 203.808 41.9855 202.941 41.6125C202.121 41.1463 201.446 40.6801 200.964 40.1206ZM201.976 30.7492C201.205 31.5884 200.867 32.6608 200.867 33.9662C200.867 35.2717 201.253 36.3441 201.976 37.1833C202.748 38.0225 203.712 38.4421 204.917 38.4421C206.123 38.4421 207.135 38.0225 207.859 37.1833C208.63 36.3441 208.968 35.2717 208.968 33.9662C208.968 32.6608 208.582 31.5884 207.859 30.7492C207.087 29.91 206.123 29.4904 204.917 29.4904C203.712 29.4904 202.748 29.91 201.976 30.7492Z" fill="#A8A8A8"/>
</g>
<defs>
<clipPath id="clip0_416_945">
<rect width="228" height="45" fill="white" transform="translate(0.5 8)"/>
</clipPath>
</defs>
</svg>
