<svg width="221" height="61" viewBox="0 0 221 61" fill="none" xmlns="http://www.w3.org/2000/svg">
<path fill-rule="evenodd" clip-rule="evenodd" d="M29.2117 8.72923C30.882 10.059 32.5877 11.348 34.3287 12.5963C36.1498 13.6908 38.0105 14.7334 39.9109 15.7241C40.221 15.9515 40.5311 16.179 40.8412 16.4065C40.5699 16.6718 40.2985 16.9373 40.0272 17.2027C38.5929 18.0747 37.1585 18.9466 35.7243 19.8186C33.4978 20.8882 31.3269 22.0444 29.2117 23.2876C27.1718 24.247 25.1172 25.2137 23.0481 26.1879C22.8155 26.2638 22.5829 26.2638 22.3503 26.1879C21.7664 25.9401 21.1849 25.6936 20.6059 25.4486C16.6301 23.2183 12.9087 20.6213 9.44154 17.6576C8.81215 17.1184 8.26941 16.5118 7.81341 15.8378C8.08031 15.4628 8.39047 15.1216 8.74377 14.8142C11.3244 13.1163 13.9604 11.505 16.6518 9.98034C18.4706 8.86321 20.2925 7.74472 22.1177 6.62509C23.1279 5.991 24.2132 5.83928 25.374 6.17014C26.7696 6.87417 28.0489 7.7272 29.2117 8.72923ZM21.6525 28.5195C21.5383 28.9132 21.4996 29.3303 21.5362 29.7706C21.3274 33.0858 21.2885 36.3842 21.4199 39.6657C21.4008 40.0468 21.4202 40.4258 21.4781 40.8031C21.5944 40.9547 21.7107 40.9547 21.827 40.8031C21.885 40.3498 21.9044 39.8948 21.8851 39.4383C21.9744 39.3515 22.0326 39.2377 22.0596 39.0971C22.1177 38.3398 22.137 37.5815 22.1177 36.8223C22.2173 35.1553 22.2948 33.4871 22.3503 31.8179C22.5222 30.2845 22.6385 28.73 22.6992 27.1546C22.8542 27.1546 23.0093 27.1546 23.1644 27.1546C23.2588 28.8794 23.3751 30.5854 23.5133 32.2728C23.4757 36.8805 23.5531 41.468 23.7458 46.035C23.9433 46.3335 24.1565 46.3335 24.3855 46.035C24.4435 45.5056 24.4629 44.9749 24.4436 44.4427C24.5597 41.6188 24.5984 38.7754 24.5599 35.9124C24.5979 34.8302 24.5592 33.7687 24.4436 32.7278C24.3578 31.5165 24.3189 30.3032 24.3273 29.0882C24.3637 28.6853 24.3249 28.3062 24.211 27.9508C24.1774 27.5407 24.2161 27.1426 24.3273 26.7566C26.1155 25.9202 27.8599 25.0293 29.5606 24.0837C33.1205 22.4488 36.5706 20.61 39.9109 18.5675C40.4675 18.2128 40.9908 17.8148 41.4809 17.3732C41.6962 17.7384 41.8901 18.1175 42.0623 18.5106C42.2421 19.217 42.4554 19.8995 42.702 20.5579C42.9885 22.4149 43.3762 24.2347 43.8649 26.0173C43.8337 26.1991 43.8726 26.3507 43.9812 26.4722C44.0708 27.9721 44.3808 29.4128 44.9116 30.7942C45.0279 31.1733 45.1442 31.5525 45.2605 31.9316C45.2949 32.148 45.3724 32.3376 45.493 32.5003C45.5119 32.7308 45.4925 32.9583 45.4349 33.1827C44.2154 34.2748 43.6145 35.6397 43.6323 37.2773C43.6638 37.7932 43.7414 38.286 43.8649 38.7558C43.8306 39.01 43.8694 39.2375 43.9812 39.4383C44.0005 40.0461 43.9811 40.6526 43.9231 41.2581C43.6591 41.6305 43.2908 41.7823 42.8183 41.713C42.5801 40.9269 42.4251 40.1307 42.3531 39.3245C42.347 38.3314 41.9981 37.4783 41.3064 36.7654C40.9963 36.6896 40.6862 36.6896 40.3761 36.7654C39.7212 37.4588 39.1979 38.2359 38.8061 39.0971C38.526 39.3764 38.1966 39.5849 37.8176 39.7226C37.0747 40.2846 36.6482 41.0239 36.5383 41.9405C36.3077 42.3157 36.1914 42.7328 36.1894 43.1916C35.9125 43.8134 35.7962 44.4768 35.8405 45.182C35.8961 47.1597 36.1481 49.1122 36.5965 51.0395C36.6989 52.0702 36.6602 53.0938 36.4802 54.1104C36.0687 54.9472 35.4291 55.1937 34.5613 54.8497C34.3214 54.5641 34.1469 54.2419 34.038 53.8829C34.1321 52.3317 34.2289 50.7774 34.3287 49.2197C34.2973 47.8679 34.181 46.5409 33.9798 45.2389C34.0005 44.8269 33.923 44.4477 33.7472 44.1015C33.7411 43.4378 33.5085 42.8691 33.0495 42.3954C32.8015 42.2115 32.5302 42.1547 32.2354 42.2248C30.8915 42.8946 29.903 43.8994 29.2699 45.2389C29.2123 45.4633 29.1929 45.6907 29.2117 45.9213C29.0076 46.7656 28.9302 47.6375 28.9791 48.5372C28.9284 49.2108 28.5795 49.6089 27.9325 49.7315C27.7578 49.6652 27.6028 49.5704 27.4673 49.4471C27.1313 48.5682 26.6274 47.791 25.9555 47.1155C25.7781 47.0008 25.5842 46.9439 25.374 46.9449C24.9023 46.791 24.4371 46.8479 23.9784 47.1155C22.6758 48.0462 21.2608 48.7477 19.7337 49.2197C18.7755 49.0409 18.194 48.4722 17.9892 47.5136C17.8499 46.7791 17.6562 46.0588 17.4078 45.3526C17.2544 45.1266 17.0412 44.9939 16.7681 44.9545C16.1641 44.9396 15.5826 44.8259 15.0237 44.6133C14.5692 44.1032 14.1429 43.5724 13.7445 43.021C13.3237 42.9111 12.9361 42.968 12.5815 43.1916C12.0803 43.8305 11.809 44.5508 11.7674 45.3526C11.4315 46.0627 11.2764 46.8208 11.3023 47.6273C11.1891 47.9058 11.1504 48.2091 11.186 48.5372C11.0894 49.5409 11.0313 50.5645 11.0115 51.6082C10.6166 52.6178 9.95754 52.8453 9.03451 52.2906C8.93426 52.1101 8.85669 51.9205 8.80192 51.7219C8.74388 51.0785 8.72446 50.4339 8.74377 49.7884C8.95822 49.2139 9.07451 48.6073 9.09265 47.9686C9.24395 47.4632 9.32152 46.9325 9.32524 46.3762C9.397 46.3636 9.45515 46.3257 9.49969 46.2625C9.59586 44.84 9.57644 43.4373 9.44154 42.0542C9.60307 40.1871 8.78901 38.955 6.99934 38.3578C6.73244 37.9828 6.42228 37.6416 6.06898 37.3341C5.17502 36.9905 4.57412 37.2749 4.2664 38.1872C4.15278 38.4419 4.09464 38.7073 4.09196 38.9833C3.98334 39.1048 3.9445 39.2564 3.97567 39.4383C3.88635 39.525 3.8282 39.6388 3.80122 39.7795C3.74308 41.03 3.72365 42.2811 3.74308 43.5328C3.38617 44.5205 2.80469 44.6721 1.99865 43.9878C1.90654 43.3474 1.86782 42.7029 1.88235 42.0542C2.07715 41.7122 2.1546 41.3331 2.11494 40.9168C2.51186 38.9251 2.37614 36.9537 1.70791 35.0025C1.35495 34.2799 1.00607 33.5596 0.661254 32.8415C0.412731 31.7707 0.451457 30.7092 0.777549 29.6569C1.31762 28.5475 1.80211 27.4101 2.23124 26.2447C2.34753 26.2069 2.4251 26.131 2.46383 26.0173C2.60036 25.9019 2.67781 25.7503 2.69642 25.5623C3.33488 24.2166 3.99381 22.8897 4.67344 21.5815C4.80997 21.4662 4.88742 21.3146 4.90603 21.1266C5.58612 19.6832 6.36134 18.2805 7.23193 16.9183C11.4366 21.0509 16.2047 24.4062 21.5362 26.984C21.6487 27.4846 21.6874 27.9964 21.6525 28.5195ZM10.3719 16.3497C10.3884 16.7042 10.5436 16.9886 10.8371 17.2027C10.3249 17.1993 9.95661 16.953 9.73228 16.4634C9.60726 15.9678 9.68483 15.5128 9.96487 15.0986C10.5405 14.4563 11.2577 14.134 12.1163 14.1318C11.52 14.5068 10.9773 14.9428 10.4882 15.4398C10.2441 15.7317 10.2054 16.035 10.3719 16.3497ZM36.422 18.1694C36.2501 18.1992 36.0951 18.1613 35.9569 18.0557C35.9763 18.0178 35.9956 17.9798 36.015 17.9419C36.5848 17.718 37.1469 17.4716 37.7013 17.2027C37.9336 16.9252 37.9724 16.6409 37.8176 16.3496C37.6407 15.9385 37.3306 15.6541 36.8872 15.4966C37.6161 15.4644 38.1782 15.7488 38.5735 16.3496C38.7133 16.8379 38.5776 17.236 38.1665 17.5439C37.6084 17.858 37.0269 18.0666 36.422 18.1694ZM31.305 41.1443C29.7814 41.8353 28.3083 42.6315 26.8858 43.5328C26.745 43.4448 26.745 43.35 26.8858 43.2485C28.767 41.7602 30.8215 40.566 33.0495 39.6658C33.7694 39.4657 34.4672 39.2003 35.1428 38.8696C35.5498 38.3009 35.9568 37.7322 36.3639 37.1635C36.7293 36.8066 37.1556 36.5412 37.6431 36.3674C37.7893 36.4072 37.8281 36.483 37.7594 36.5948C37.3361 37.0088 36.9098 37.4258 36.4802 37.846C36.2058 38.4184 35.8375 38.9302 35.3754 39.3814C34.1403 39.8975 32.8998 40.3904 31.6539 40.86C31.5294 40.9569 31.4131 41.0516 31.305 41.1443ZM4.32455 34.5477C3.48013 33.922 2.9568 33.088 2.75457 32.0455C2.59978 31.6663 2.38649 31.3251 2.11494 31.0218C2.26496 30.9186 2.41999 30.9376 2.58012 31.0787C3.1602 31.7767 3.60596 32.554 3.91752 33.4103C4.05323 33.543 4.18883 33.6757 4.32455 33.8084C6.50741 34.8807 8.42628 36.3024 10.0812 38.0735C10.1587 38.1494 10.1587 38.2252 10.0812 38.301C8.81354 37.3305 7.51488 36.4016 6.18527 35.5145C5.57717 35.1604 4.95696 34.8381 4.32455 34.5477ZM17.9311 43.6465C17.7904 43.6957 17.6741 43.7715 17.5822 43.874C16.5911 42.9236 15.5833 41.9947 14.5585 41.0874C14.6748 41.0116 14.7911 41.0116 14.9074 41.0874C16.0322 41.8081 17.0401 42.6611 17.9311 43.6465ZM17.9311 43.6466C18.726 44.3289 19.54 44.9924 20.3733 45.637C20.9971 45.6565 21.6174 45.7133 22.234 45.8076C21.6932 46.2297 21.073 46.3624 20.3733 46.2057C19.2838 45.6144 18.3535 44.8371 17.5822 43.8741C17.6741 43.7716 17.7904 43.6958 17.9311 43.6466Z" fill="#A8A8A8"/>
<g clip-path="url(#clip0_415_866)">
<path d="M81.5641 20H85.5797V40.7582H81.5641V32.4492H65.5156V40.7582H61.5V20H65.5156V28.2945H81.5641V20ZM108.607 36.6037V28.2945C108.607 27.1518 108.218 26.1737 107.441 25.3603C106.655 24.5467 105.709 24.14 104.605 24.14H92.5581V32.4492C92.5581 33.5919 92.9512 34.5698 93.7374 35.3836C94.5236 36.197 95.4692 36.6037 96.5737 36.6037H108.607ZM88.5425 20H104.605C106.814 20 108.705 20.8086 110.277 22.4259C111.84 24.0529 112.622 26.0091 112.622 28.2945V40.7582H96.5737C94.3551 40.7582 92.4644 39.9448 90.9011 38.3176C89.3287 36.7006 88.5425 34.7441 88.5425 32.4492V20ZM115.585 20H138.33V24.14H128.965V40.7582H124.95V24.14H115.585V20Z" fill="#A8A8A8"/>
<path d="M158.128 20H165.148L154.154 27.9023L165.12 40.7582H159.771L150.841 30.2991L145.295 34.2793V40.7582H141.279V20H145.295V29.2243L158.128 20ZM168.097 40.7582V36.6037H191.18V40.7582H168.097ZM168.097 24.14V20H191.18V24.14H168.097ZM168.097 32.4492V28.2945H191.18V32.4492H168.097ZM213.125 20H218.18L208.169 33.4659V40.7582H204.153V33.4659L194.128 20H199.197L206.147 29.3405H206.175L213.125 20Z" fill="#A8A8A8"/>
</g>
<defs>
<clipPath id="clip0_415_866">
<rect width="159" height="21" fill="white" transform="translate(61.5 20)"/>
</clipPath>
</defs>
</svg>
