<svg width="40" height="33" viewBox="0 0 40 33" fill="none" xmlns="http://www.w3.org/2000/svg">
<g clip-path="url(#clip0_441_626)">
<path d="M36.683 19.9605C36.683 20.7187 36.5449 21.4439 36.2922 22.1125C35.4275 24.3962 33.2305 26.0183 30.6558 26.0183C28.0208 26.0183 25.7817 24.319 24.962 21.9509C20.0942 22.3026 17.3108 20.1158 16.1535 15.9476C13.2299 15.1484 11.0809 12.4615 11.0809 9.26939C11.0809 7.20495 11.9803 5.35118 13.4068 4.08398C14.6205 3.00387 16.2169 2.34863 17.9657 2.34863C19.9693 2.34863 21.7733 3.20847 23.03 4.58291C23.8752 4.02735 24.8852 3.70533 25.97 3.70533C26.7272 3.70533 27.4487 3.86279 28.1026 4.14671C29.9947 4.96759 31.3251 6.8479 31.3547 9.0442C31.3557 9.06992 31.3557 9.09456 31.3557 9.12036L31.3547 9.21191V9.21298C31.6298 9.15221 31.9153 9.12036 32.2091 9.12036C33.521 9.12036 34.6866 9.75195 35.4212 10.7292H35.4224C35.9319 11.4071 36.2338 12.2516 36.2338 13.1671C36.2356 14.1166 35.9028 15.0361 35.2944 15.7624C35.2487 15.8184 35.2012 15.8729 35.152 15.926C36.1049 16.9968 36.683 18.4112 36.683 19.9605Z" fill="white"/>
<path d="M28.9975 22.6979C29.2106 23.2921 29.3193 23.919 29.3187 24.5506C29.3187 27.7992 26.4822 30.4314 22.9824 30.4314C20.3875 30.4314 18.1575 28.9841 17.1793 26.9114C16.3731 27.4617 15.4059 27.7826 14.3672 27.7826C12.0383 27.7826 10.0734 26.1718 9.45747 23.9684C9.01767 24.0786 8.56609 24.1342 8.11283 24.134C5.07053 24.134 2.6033 21.6547 2.6033 18.5955C2.6033 16.246 4.05945 14.2381 6.11423 13.4347C6.03342 13.0984 5.99044 12.7496 5.99044 12.3917C5.99044 9.61739 8.5549 7.36865 11.7189 7.36865C13.5353 7.36865 15.1561 8.11122 16.205 9.26748C17.0463 8.81382 18.0164 8.55368 19.0499 8.55368C22.2559 8.55368 24.855 11.0524 24.855 14.1342C24.8553 14.2069 24.8537 14.2795 24.8499 14.3521C27.4952 14.8398 29.5059 17.282 29.5059 20.2219C29.5059 21.1054 29.325 21.944 28.9975 22.6979Z" fill="white"/>
<path d="M17.9771 0C16.0853 0 14.2656 0.566288 12.7147 1.63752C11.3756 2.56248 10.3141 3.81007 9.61296 5.27501C6.19987 6.10646 3.75966 8.86746 3.60539 12.1323C1.4929 13.6068 0.21051 16.0412 0.21051 18.6653C0.21051 23.006 3.68705 26.546 7.98795 26.6197C9.34604 28.8628 11.767 30.2697 14.3792 30.2697C15.0465 30.2697 15.7023 30.1808 16.3384 30.0046C17.9848 31.8451 20.4036 32.9185 22.9944 32.9185C24.7494 32.9185 26.4494 32.4182 27.9105 31.4722C29.098 30.7034 30.0546 29.6887 30.7167 28.5043C35.3436 28.4776 39.0992 24.6859 39.0992 20.0292C39.0992 18.5904 38.7412 17.1944 38.0573 15.9462C38.4481 15.0967 38.6504 14.1719 38.6501 13.2358C38.6501 11.5406 38.0002 9.93758 36.8198 8.72226C35.889 7.76373 34.7109 7.13055 33.4287 6.88552C32.9953 5.47128 32.1654 4.19706 31.0313 3.22589C29.6221 2.02005 27.8321 1.35746 25.9815 1.35661C25.1189 1.35661 24.2532 1.50374 23.4375 1.78564C21.853 0.629163 19.9433 0 17.9771 0ZM17.9771 1.33725C19.8952 1.33725 21.7762 2.05328 23.217 3.31747C24.0812 2.90671 25.0253 2.69378 25.9814 2.69402C29.1656 2.69402 31.8393 5.0218 32.3529 8.11067C35.1034 8.18158 37.3197 10.4535 37.3197 13.2359C37.3187 14.2109 37.042 15.1654 36.5219 15.9883C37.3292 17.1709 37.7688 18.5858 37.7688 20.0293C37.7688 23.9652 34.5829 27.1673 30.667 27.1673C30.4138 27.1673 30.1596 27.1534 29.9067 27.126C28.8137 29.7778 26.0597 31.5814 22.9943 31.5814C20.4663 31.5814 18.1497 30.3894 16.7904 28.43C16.0293 28.7611 15.2086 28.9321 14.3792 28.9325C11.9626 28.9325 9.77682 27.4759 8.77033 25.2522C8.55589 25.2733 8.34015 25.2838 8.1248 25.2838C4.49445 25.2838 1.54086 22.3148 1.54086 18.6653C1.54086 16.2424 2.86001 14.0226 4.94319 12.8699C4.93309 12.734 4.92801 12.5977 4.928 12.4614C4.928 9.468 7.3164 6.95311 10.5557 6.44947C11.739 3.37294 14.6653 1.33725 17.9771 1.33725Z" fill="#F0F0F0"/>
<path d="M25.8681 8.79164C25.1818 9.54144 24.6637 10.4492 24.3739 11.4546M32.176 19.8577C31.7125 19.9581 31.2397 20.0086 30.7657 20.0083C30.4247 20.0083 30.0898 19.9826 29.7627 19.9328M17.6398 6.6326C17.6845 7.28141 17.8616 7.89359 18.1442 8.442M29.6095 10.059C30.104 9.64592 30.6907 9.35935 31.3195 9.22385M22.9947 4.59375C22.2202 5.10078 21.5835 5.80347 21.1549 6.6326M35.117 15.9365C35.117 15.9365 34.6498 15.4491 34.0108 14.9419M26.9069 19.9718C27.8513 20.6732 28.5739 21.6218 28.9627 22.7101M28.9627 22.7101C29.1758 23.3043 29.2847 23.9308 29.2841 24.5624C29.2841 27.811 26.4476 30.4433 22.9478 30.4433C20.3528 30.4433 18.1229 28.9959 17.1447 26.9232C16.3385 27.4736 15.3713 27.7945 14.3326 27.7945C12.0037 27.7945 10.0386 26.1839 9.42262 23.9805M28.9627 22.7101C29.2902 21.9562 29.4713 21.1173 29.4713 20.2337C29.4713 17.2938 27.4606 14.8516 24.8153 14.364C24.8191 14.2914 24.8207 14.2187 24.8204 14.146C24.8204 11.0642 22.2213 8.56552 19.0153 8.56552C17.9818 8.56552 17.0115 8.82602 16.1703 9.27967M9.42262 23.9805C9.29163 23.5135 9.22198 23.0208 9.22198 22.5105C9.22198 20.4284 10.3876 18.6273 12.0802 17.7663M9.42262 23.9805C8.98282 24.0907 8.53148 24.146 8.07822 24.1459C5.03592 24.1459 2.5687 21.6666 2.5687 18.6074C2.5687 16.2579 4.02469 14.2503 6.07947 13.4469M7.51421 13.0992C7.0128 13.1506 6.53183 13.269 6.07947 13.4469M6.07947 13.4469C5.99865 13.1106 5.95583 12.7615 5.95583 12.4036C5.95583 9.62923 8.52029 7.3805 11.6843 7.3805C13.5007 7.3805 15.1213 8.12342 16.1703 9.27967M16.1714 9.28065L16.1703 9.27967M16.1703 9.27967C15.451 9.6706 14.8268 10.2035 14.3387 10.8393M19.8636 16.0233C20.8828 14.9453 22.2899 14.2776 23.8432 14.2776C24.1748 14.2776 24.4992 14.3075 24.8153 14.366M24.4509 21.3731C23.6479 22.3824 22.4125 23.0291 21.0268 23.0291C18.6067 23.0291 16.645 21.0568 16.645 18.6243C16.6434 17.6085 16.9926 16.6237 17.6328 15.8379M22.9644 25.2091C22.9644 24.3441 22.7473 23.5306 22.3646 22.8196M13.8067 22.3958C14.5292 21.3199 15.6538 20.5411 16.9647 20.2768M5.99487 18.6123C6.54992 18.3912 7.14157 18.2778 7.73859 18.278C8.69585 18.2767 9.63074 18.5688 10.4186 19.1155M15.0036 14.5583C14.7054 14.6466 14.3899 14.6939 14.0632 14.6939C13.1962 14.695 12.3633 14.3548 11.7429 13.7462M29.3846 14.3435C29.8432 13.9995 30.4004 13.8141 30.9727 13.815C31.1317 13.8149 31.2904 13.829 31.447 13.8573" stroke="#00020E" stroke-width="0.926271" stroke-miterlimit="10" stroke-linecap="round" stroke-linejoin="round"/>
<path d="M35.589 15.9396C36.2152 15.1584 36.5568 14.1898 36.5568 13.1785C36.5568 10.7486 34.5906 8.77161 32.1739 8.77161C32.005 8.77161 31.8365 8.78149 31.6694 8.80097C31.4983 5.76988 28.9915 3.35677 25.9347 3.35677C24.9155 3.35677 23.9254 3.62502 23.0532 4.13514C21.6941 2.76985 19.8518 2.00203 17.9304 2C14.71 2 11.975 4.12434 11.0361 7.05173C7.98359 7.33881 5.59757 9.62936 5.59757 12.404C5.59757 12.6801 5.62159 12.9567 5.66894 13.2295C3.5579 14.1806 2.21051 16.2596 2.21051 18.6079C2.21051 21.8602 4.84275 24.5062 8.07815 24.5062C8.44762 24.5063 8.81628 24.4716 9.17937 24.4027C9.94725 26.6282 12.0206 28.1549 14.3326 28.1549C15.2707 28.1556 16.1925 27.9076 17.0049 27.4361C18.1487 29.4945 20.4368 30.8037 22.9477 30.8037C26.0047 30.8037 28.5879 28.8828 29.386 26.2682C29.7876 26.3477 30.2005 26.3896 30.6205 26.3896C34.1414 26.3896 37.006 23.5105 37.006 19.9718C37.006 18.4976 36.5049 17.0779 35.589 15.9396Z" stroke="#00020E" stroke-width="1.62095" stroke-miterlimit="10" stroke-linejoin="round"/>
</g>
<defs>
<clipPath id="clip0_441_626">
<rect width="39" height="33" fill="white" transform="translate(0.21051)"/>
</clipPath>
</defs>
</svg>
