<svg width="181" height="61" viewBox="0 0 181 61" fill="none" xmlns="http://www.w3.org/2000/svg">
<g clip-path="url(#clip0_439_630)">
<path d="M55.8519 37.3237C55.8519 38.4836 55.6425 39.5931 55.2591 40.6159C53.9472 44.1096 50.6139 46.5913 46.7079 46.5913C42.7102 46.5913 39.3132 43.9916 38.0695 40.3688C30.6844 40.9068 26.4616 37.5612 24.7057 31.1844C20.2702 29.9617 17.0099 25.8511 17.0099 20.9676C17.0099 17.8093 18.3745 14.9733 20.5386 13.0346C22.38 11.3822 24.802 10.3798 27.4551 10.3798C30.4948 10.3798 33.2319 11.6952 35.1384 13.7979C36.4207 12.948 37.9529 12.4553 39.5988 12.4553C40.7475 12.4553 41.8422 12.6962 42.8343 13.1306C45.7049 14.3864 47.7232 17.263 47.7681 20.6231C47.7696 20.6625 47.7696 20.7002 47.7696 20.7396L47.7681 20.8797V20.8813C48.1856 20.7884 48.6187 20.7396 49.0644 20.7396C51.0547 20.7396 52.8231 21.7059 53.9376 23.2009H53.9394C54.7124 24.2381 55.1705 25.5301 55.1705 26.9306C55.1732 28.3832 54.6683 29.7899 53.7452 30.9011C53.6759 30.9868 53.6039 31.0702 53.5292 31.1513C54.9748 32.7895 55.8519 34.9534 55.8519 37.3237Z" fill="white"/>
<path d="M39.4967 20.2187C37.8424 22.0413 36.8321 24.474 36.8321 27.1461C36.8321 32.7973 41.3517 37.3788 46.927 37.3788C47.6462 37.3792 48.3635 37.3019 49.0667 37.1484M27.0131 16.9157C27.2656 20.6114 30.3033 23.53 34.0133 23.53M45.1729 22.1576C45.9232 21.5257 46.8133 21.0873 47.7672 20.88M35.1373 13.7965C33.9623 14.5722 32.9964 15.6472 32.3461 16.9157" stroke="#A8A8A8" stroke-width="0.926271" stroke-miterlimit="10" stroke-linecap="round" stroke-linejoin="round"/>
<path d="M55.8513 37.3223C55.8513 42.4414 51.7573 46.59 46.7072 46.59C42.7095 46.59 39.3125 43.9902 38.0689 40.3674C30.6837 40.9056 26.4609 37.5598 24.705 31.183C20.2696 29.9603 17.0093 25.8498 17.0093 20.9664C17.0093 15.1185 21.6853 10.3784 27.4546 10.3784C30.4941 10.3784 33.2312 11.6939 35.1377 13.7966C36.42 12.9466 37.9523 12.454 39.5982 12.454C44.1112 12.454 47.7689 16.1634 47.7689 20.7382L47.7675 20.8784V20.8799C48.1849 20.787 48.618 20.7382 49.0637 20.7382C52.4357 20.7382 55.1698 23.5095 55.1698 26.9293C55.1698 28.5614 54.5472 30.0438 53.5285 31.1499C54.9742 32.7882 55.8513 34.9521 55.8513 37.3223Z" stroke="#A8A8A8" stroke-width="0.810433" stroke-miterlimit="10" stroke-linejoin="round"/>
<path d="M53.5286 31.1496C53.5286 31.1496 52.8197 30.404 51.8502 29.6281ZM26.2619 47.9573C25.8618 47.1098 25.6057 46.1999 25.5046 45.266Z" fill="black"/>
<path d="M53.5286 31.1496C53.5286 31.1496 52.8197 30.404 51.8502 29.6281M26.2619 47.9573C25.8618 47.1098 25.6057 46.1999 25.5046 45.266" stroke="#A8A8A8" stroke-width="0.926271" stroke-miterlimit="10" stroke-linecap="round" stroke-linejoin="round"/>
<path d="M44.192 41.5117C44.5153 42.4208 44.6801 43.3798 44.6793 44.3461C44.6793 49.316 40.3759 53.343 35.0662 53.343C31.1293 53.343 27.7462 51.1287 26.2621 47.9578C25.0389 48.7997 23.5715 49.2907 21.9957 49.2907C18.4624 49.2907 15.4814 46.8263 14.5469 43.4553C13.8797 43.624 13.1946 43.7091 12.5069 43.7088C7.89133 43.7088 4.14819 39.9158 4.14819 35.2356C4.14819 31.6412 6.35738 28.5693 9.47478 27.3402C9.35217 26.8257 9.28696 26.2921 9.28696 25.7446C9.28696 21.5002 13.1776 18.0599 17.9779 18.0599C20.7336 18.0599 23.1926 19.196 24.784 20.9649C26.0603 20.2709 27.532 19.8729 29.1001 19.8729C33.964 19.8729 37.9072 23.6956 37.9072 28.4103C37.9077 28.5215 37.9052 28.6327 37.8994 28.7438C41.9128 29.4898 44.9633 33.226 44.9633 37.7237C44.9633 39.0754 44.6888 40.3583 44.192 41.5117Z" fill="white"/>
<path d="M41.0727 37.3231C42.5055 38.3962 43.6018 39.8475 44.1917 41.5124M14.5466 43.4559C14.3479 42.7414 14.2422 41.9877 14.2422 41.2071C14.2422 38.0217 16.0106 35.2662 18.5786 33.9491M11.6512 26.809C10.8905 26.8876 10.1608 27.0687 9.47455 27.3409M24.7855 20.9671L24.7837 20.9656C23.6925 21.5636 22.7454 22.379 22.005 23.3516" stroke="#A8A8A8" stroke-width="0.926271" stroke-miterlimit="10" stroke-linecap="round" stroke-linejoin="round"/>
<path d="M44.192 41.5117C44.5153 42.4208 44.6801 43.3798 44.6793 44.3461C44.6793 49.316 40.3759 53.343 35.0662 53.343C31.1293 53.343 27.7462 51.1287 26.2621 47.9578C25.0389 48.7997 23.5715 49.2907 21.9957 49.2907C18.4624 49.2907 15.4814 46.8263 14.5469 43.4553C13.8797 43.624 13.1946 43.7091 12.5069 43.7088C7.89133 43.7088 4.14819 39.9158 4.14819 35.2356C4.14819 31.6412 6.35738 28.5693 9.47478 27.3402C9.35217 26.8257 9.28696 26.2921 9.28696 25.7446C9.28696 21.5002 13.1776 18.0599 17.9779 18.0599C20.7336 18.0599 23.1926 19.196 24.784 20.9649C26.0603 20.2709 27.532 19.8729 29.1001 19.8729C33.964 19.8729 37.9072 23.6956 37.9072 28.4103C37.9077 28.5215 37.9052 28.6327 37.8994 28.7438C41.9128 29.4898 44.9633 33.226 44.9633 37.7237C44.9633 39.0754 44.6888 40.3583 44.192 41.5117Z" stroke="#A8A8A8" stroke-width="0.810433" stroke-miterlimit="10" stroke-linejoin="round"/>
<path d="M30.3871 31.2818C31.9333 29.6326 34.068 28.6112 36.4247 28.6112C36.9278 28.6112 37.4199 28.6569 37.8995 28.7464M37.3466 39.4663C36.1283 41.0105 34.254 41.9998 32.1517 41.9998C28.4802 41.9998 25.5039 38.9825 25.5039 35.261C25.5015 33.7071 26.0313 32.2005 27.0026 30.9982" stroke="#A8A8A8" stroke-width="0.926271" stroke-miterlimit="10" stroke-linecap="round" stroke-linejoin="round"/>
<path d="M35.0914 45.3352C35.0914 44.0118 34.7621 42.7672 34.1813 41.6795M21.1979 41.0312C22.2939 39.3851 24.0002 38.1937 25.9891 37.7893M9.34619 35.2428C10.1883 34.9046 11.0859 34.7312 11.9917 34.7314C13.444 34.7294 14.8623 35.1762 16.0576 36.0126M23.0137 29.0408C22.5613 29.1758 22.0826 29.2482 21.587 29.2482C20.2717 29.2498 19.008 28.7295 18.0667 27.7983M44.8318 28.7122C45.5276 28.1858 46.3729 27.9022 47.2411 27.9036C47.4824 27.9034 47.7232 27.9251 47.9607 27.9683" stroke="#A8A8A8" stroke-width="0.926271" stroke-miterlimit="10" stroke-linecap="round" stroke-linejoin="round"/>
<path d="M54.2447 31.1539C55.1948 29.9588 55.713 28.477 55.713 26.9298C55.713 23.2123 52.73 20.1878 49.0636 20.1878C48.8073 20.1878 48.5516 20.2029 48.2981 20.2327C48.0386 15.5955 44.2354 11.9038 39.5978 11.9038C38.0515 11.9038 36.5494 12.3142 35.2261 13.0946C33.1642 11.0059 30.3692 9.83123 27.4542 9.82812C22.5683 9.82812 18.4189 13.0781 16.9945 17.5566C12.3634 17.9958 8.74344 21.5001 8.74344 25.7448C8.74344 26.1673 8.77989 26.5905 8.85173 27.0078C5.64899 28.4628 3.6048 31.6435 3.6048 35.236C3.6048 40.2117 7.59828 44.2597 12.5068 44.2597C13.0674 44.2599 13.6267 44.2068 14.1776 44.1013C15.3425 47.5061 18.488 49.8418 21.9957 49.8418C23.419 49.8427 24.8174 49.4634 26.05 48.742C27.7854 51.8911 31.2567 53.8941 35.0661 53.8941C39.704 53.8941 43.6231 50.9553 44.834 46.9553C45.4431 47.077 46.0696 47.1411 46.7068 47.1411C52.0486 47.1411 56.3945 42.7364 56.3945 37.3227C56.3945 35.0673 55.6343 32.8953 54.2447 31.1539Z" stroke="#A8A8A8" stroke-width="1.62095" stroke-miterlimit="10" stroke-linejoin="round"/>
<path d="M27.4544 6.68054C24.5843 6.68054 21.8235 7.54689 19.4706 9.18574C17.439 10.6008 15.8286 12.5095 14.7649 14.7506C9.58671 16.0226 5.88457 20.2466 5.65053 25.2413C2.44557 27.4971 0.5 31.2215 0.5 35.236C0.5 41.8767 5.77441 47.2924 12.2995 47.4053C14.3599 50.8369 18.0328 52.9892 21.996 52.9892C23.0084 52.9892 24.0033 52.8532 24.9684 52.5836C27.4661 55.3993 31.1357 57.0415 35.0664 57.0415C37.729 57.0415 40.3081 56.2762 42.5249 54.8289C44.3264 53.6528 45.7778 52.1004 46.7823 50.2884C53.8019 50.2475 59.4997 44.4467 59.4997 37.3227C59.4997 35.1215 58.9565 32.9858 57.9191 31.0761C58.5119 29.7766 58.8188 28.3617 58.8184 26.9297C58.8184 24.3362 57.8323 21.8837 56.0415 20.0245C54.6294 18.558 52.842 17.5894 50.8967 17.2145C50.2393 15.0509 48.9802 13.1015 47.2595 11.6157C45.1216 9.77096 42.406 8.75728 39.5982 8.75598C38.2896 8.75598 36.9762 8.98106 35.7387 9.41235C33.3347 7.64308 30.4374 6.68054 27.4544 6.68054ZM27.4544 8.72636C30.3645 8.72636 33.2182 9.8218 35.4041 11.7558C36.7153 11.1274 38.1476 10.8017 39.5981 10.802C44.429 10.802 48.4854 14.3632 49.2646 19.0888C53.4375 19.1973 56.7999 22.6731 56.7999 26.9298C56.7985 28.4213 56.3786 29.8816 55.5895 31.1405C56.8144 32.9499 57.4813 35.1144 57.4813 37.3228C57.4813 43.3442 52.6478 48.243 46.7069 48.243C46.3228 48.243 45.9371 48.2218 45.5533 48.1797C43.8952 52.2367 39.7169 54.9959 35.0662 54.9959C31.231 54.9959 27.7163 53.1724 25.6541 50.1747C24.4993 50.6813 23.2543 50.9429 21.996 50.9435C18.3295 50.9435 15.0135 48.7151 13.4865 45.3131C13.1611 45.3454 12.8338 45.3614 12.5071 45.3614C6.99935 45.3614 2.51834 40.8193 2.51834 35.236C2.51834 31.5293 4.51967 28.1333 7.68015 26.3698C7.66483 26.1619 7.65713 25.9533 7.6571 25.7448C7.6571 21.1654 11.2807 17.3179 16.1951 16.5474C17.9904 11.8407 22.43 8.72636 27.4544 8.72636Z" fill="#F0F0F0"/>
</g>
<path d="M78.32 41V20H82.22V41H78.32ZM97.7401 41.3C96.1001 41.3 94.5901 41.03 93.2101 40.49C91.8301 39.95 90.6301 39.2 89.6101 38.24C88.5901 37.26 87.8001 36.12 87.2401 34.82C86.6801 33.5 86.4001 32.06 86.4001 30.5C86.4001 28.94 86.6801 27.51 87.2401 26.21C87.8001 24.89 88.5901 23.75 89.6101 22.79C90.6301 21.81 91.8301 21.05 93.2101 20.51C94.5901 19.97 96.0901 19.7 97.7101 19.7C99.3501 19.7 100.85 19.97 102.21 20.51C103.59 21.05 104.79 21.8 105.81 22.76C106.83 23.72 107.62 24.86 108.18 26.18C108.74 27.5 109.02 28.94 109.02 30.5C109.02 32.06 108.74 33.5 108.18 34.82C107.62 36.14 106.83 37.28 105.81 38.24C104.79 39.2 103.59 39.95 102.21 40.49C100.85 41.03 99.3601 41.3 97.7401 41.3ZM104.58 45.59C103.84 45.59 103.12 45.5 102.42 45.32C101.74 45.16 101.06 44.88 100.38 44.48C99.7201 44.1 99.0301 43.59 98.3101 42.95C97.5901 42.33 96.8001 41.56 95.9401 40.64L100.08 39.56C100.64 40.3 101.17 40.89 101.67 41.33C102.19 41.79 102.69 42.12 103.17 42.32C103.65 42.52 104.15 42.62 104.67 42.62C106.05 42.62 107.25 42.06 108.27 40.94L110.07 43.1C108.67 44.76 106.84 45.59 104.58 45.59ZM97.7101 37.88C98.7701 37.88 99.7501 37.7 100.65 37.34C101.55 36.98 102.33 36.47 102.99 35.81C103.65 35.13 104.16 34.34 104.52 33.44C104.9 32.54 105.09 31.56 105.09 30.5C105.09 29.42 104.9 28.44 104.52 27.56C104.16 26.66 103.65 25.88 102.99 25.22C102.33 24.54 101.55 24.02 100.65 23.66C99.7501 23.3 98.7701 23.12 97.7101 23.12C96.6501 23.12 95.6701 23.3 94.7701 23.66C93.8701 24.02 93.0901 24.54 92.4301 25.22C91.7701 25.88 91.2501 26.66 90.8701 27.56C90.5101 28.44 90.3301 29.42 90.3301 30.5C90.3301 31.56 90.5101 32.54 90.8701 33.44C91.2501 34.34 91.7701 35.13 92.4301 35.81C93.0901 36.47 93.8701 36.98 94.7701 37.34C95.6701 37.7 96.6501 37.88 97.7101 37.88ZM113.408 41.21C112.728 41.21 112.148 40.98 111.668 40.52C111.188 40.04 110.948 39.44 110.948 38.72C110.948 37.96 111.188 37.36 111.668 36.92C112.148 36.46 112.728 36.23 113.408 36.23C114.088 36.23 114.668 36.46 115.148 36.92C115.628 37.36 115.868 37.96 115.868 38.72C115.868 39.44 115.628 40.04 115.148 40.52C114.668 40.98 114.088 41.21 113.408 41.21ZM122.076 41L116.196 24.98H119.736L124.776 39.11H123.096L128.376 24.98H131.526L136.656 39.11H135.006L140.196 24.98H143.526L137.616 41H134.016L129.336 28.49H130.446L125.676 41H122.076ZM146.105 41V24.98H149.855V41H146.105ZM147.995 22.34C147.295 22.34 146.715 22.12 146.255 21.68C145.815 21.24 145.595 20.71 145.595 20.09C145.595 19.45 145.815 18.92 146.255 18.5C146.715 18.06 147.295 17.84 147.995 17.84C148.695 17.84 149.265 18.05 149.705 18.47C150.165 18.87 150.395 19.38 150.395 20C150.395 20.66 150.175 21.22 149.735 21.68C149.295 22.12 148.715 22.34 147.995 22.34ZM157.836 37.43L157.926 32.72L166.296 24.98H170.796L163.686 32.12L161.706 33.77L157.836 37.43ZM154.776 41V18.74H158.526V41H154.776ZM166.866 41L161.016 33.77L163.386 30.77L171.426 41H166.866ZM173.849 41V24.98H177.599V41H173.849ZM175.739 22.34C175.039 22.34 174.459 22.12 173.999 21.68C173.559 21.24 173.339 20.71 173.339 20.09C173.339 19.45 173.559 18.92 173.999 18.5C174.459 18.06 175.039 17.84 175.739 17.84C176.439 17.84 177.009 18.05 177.449 18.47C177.909 18.87 178.139 19.38 178.139 20C178.139 20.66 177.919 21.22 177.479 21.68C177.039 22.12 176.459 22.34 175.739 22.34Z" fill="#A8A8A8"/>
<defs>
<clipPath id="clip0_439_630">
<rect width="59" height="49" fill="white" transform="translate(0.5 6)"/>
</clipPath>
</defs>
</svg>
