<svg width="36" height="36" viewBox="0 0 36 36" fill="none" xmlns="http://www.w3.org/2000/svg">
<path d="M10.1533 7.73438C15.7608 7.73438 20.3062 12.3115 20.3062 17.9573C20.3062 23.6031 15.7604 28.1799 10.1533 28.1799C4.54609 28.1799 0 23.6031 0 17.9573C0 12.3115 4.54575 7.73438 10.1533 7.73438ZM26.3673 8.33321C29.171 8.33321 31.4439 12.6416 31.4439 17.9573H31.4442C31.4442 23.2716 29.1714 27.5814 26.3676 27.5814C23.5639 27.5814 21.291 23.2716 21.291 17.9573C21.291 12.643 23.5635 8.33321 26.3673 8.33321ZM34.2145 9.33563C35.2004 9.33563 36 13.1956 36 17.9573C36 22.7176 35.2008 26.579 34.2145 26.579C33.2283 26.579 32.4294 22.7187 32.4294 17.9573C32.4294 13.196 33.2287 9.33563 34.2145 9.33563Z" fill="white"/>
</svg>
