<svg width="263" height="61" viewBox="0 0 263 61" fill="none" xmlns="http://www.w3.org/2000/svg">
<mask id="mask0_362_662" style="mask-type:luminance" maskUnits="userSpaceOnUse" x="0" y="14" width="265" height="34">
<path d="M264.396 14H0.39624V47.55H264.396V14Z" fill="white"/>
</mask>
<g mask="url(#mask0_362_662)">
<path d="M51.7314 36.9716L40.449 17.0748C37.9755 12.9278 31.9438 12.8837 29.5571 17.2513L17.7107 37.9422C15.4975 41.7362 18.2313 46.5008 22.6576 46.5008H46.3938C50.8635 46.5008 54.2048 41.6037 51.7314 36.9716Z" fill="#878787"/>
<path d="M35.4586 38.5158L34.7643 37.2805C34.1134 36.1334 32.6814 33.6629 32.6814 33.6629L23.1348 16.8103C20.6614 13.0603 14.8033 12.7515 12.3298 17.472L1.22104 37.0158C-1.07882 41.1186 1.65498 46.4568 6.64526 46.501H30.2513H40.3187H46.3071C40.1886 46.5451 38.2359 43.3245 35.4586 38.5158Z" fill="#969696"/>
<path d="M35.4586 38.5156L34.7643 37.2805C34.1134 36.1334 32.6814 33.6629 32.6814 33.6629L26.5195 22.6336L17.6672 37.9864C15.4542 41.7804 18.188 46.545 22.6142 46.545H30.208H40.2753H46.3071C40.1452 46.5009 38.2358 43.3245 35.4586 38.5156Z" fill="url(#paint0_linear_362_662)"/>
<path d="M260.96 41.5811C259.354 41.5811 258.095 41.2282 257.141 40.6106C256.142 39.9488 255.621 38.9781 255.621 37.6546V18.4197H258.139C259.05 18.4197 259.831 19.1697 259.831 20.1403V37.0811C259.831 37.1254 259.831 37.9194 260.482 38.5811C260.872 38.9781 261.349 39.1987 262 39.1987H262.478C262.652 39.1987 262.825 39.3753 262.825 39.5517V41.6252L260.96 41.5811Z" fill="#C2C2C2"/>
<path d="M206.717 41.5808C204.113 41.5808 201.987 40.8749 200.381 39.4631C199.558 38.7573 198.993 37.9631 198.646 37.0807C198.299 36.1985 198.124 34.919 198.124 33.1985C198.124 31.5222 198.299 30.1985 198.646 29.3162C198.949 28.478 199.514 27.728 200.339 27.0221C201.943 25.6104 204.069 24.9045 206.673 24.9045C209.277 24.9045 211.403 25.6104 213.009 27.0221C213.834 27.728 214.398 28.5221 214.701 29.3162C215.049 30.2426 215.222 31.5222 215.222 33.1985C215.222 34.919 215.049 36.1985 214.701 37.0807C214.354 37.9631 213.79 38.7573 212.965 39.4631C211.447 40.8749 209.321 41.5808 206.717 41.5808ZM206.717 27.331C203.852 27.331 202.421 29.3162 202.421 33.2426C202.421 37.2132 203.852 39.1984 206.717 39.1984C209.58 39.1984 211.013 37.2132 211.013 33.2867C211.013 29.3162 209.538 27.331 206.717 27.331Z" fill="#C2C2C2"/>
<path d="M224.682 41.5811C222.425 41.5811 220.343 40.9635 218.564 39.7723C218.39 39.5958 218.042 39.3753 217.609 39.1106C217.522 39.0665 217.436 38.934 217.436 38.8017V18.4197H219.996C220.907 18.4197 221.688 19.2138 221.688 20.1403V26.096L222.469 25.6549C223.38 25.1696 224.595 24.949 226.157 24.949C228.891 24.949 230.974 25.7872 232.363 27.4195C233.577 28.8754 234.186 30.8165 234.186 33.1989C234.186 35.5813 233.491 37.5224 232.102 38.934C230.496 40.6987 227.98 41.5811 224.682 41.5811ZM225.115 27.3313C224.161 27.3313 223.076 27.6842 221.861 28.4343L221.688 28.5225V38.0959L221.861 38.2282C222.816 38.8458 223.945 39.1546 225.115 39.1546C226.677 39.1546 227.894 38.4929 228.717 37.1694C229.412 36.1105 229.803 34.743 229.803 33.1989C229.803 29.3165 228.197 27.3313 225.115 27.3313Z" fill="#C2C2C2"/>
<path d="M244.21 41.5367C239.436 41.5367 236.442 38.3603 236.442 33.1985C236.442 28.081 239.392 24.9045 244.122 24.9045C245.945 24.9045 247.507 25.3898 248.765 26.3163L249.026 26.4928V25.2134H252.367C252.584 25.2134 252.714 25.3898 252.714 25.5663V41.2278H248.982V39.816L248.721 40.0367C247.681 41.0072 246.031 41.5367 244.21 41.5367ZM245.077 27.728C242.082 27.728 240.303 30.0662 240.303 33.1985C240.303 36.3308 242.082 38.7573 245.077 38.7573C246.031 38.7573 247.681 38.6691 248.982 37.3455L249.026 37.3014V29.2721L248.982 29.228C248.071 28.1692 246.726 27.728 245.077 27.728Z" fill="#C2C2C2"/>
<path d="M90.031 41.3602V18.3752H108.82V19.8311C108.82 20.9781 107.909 21.9046 106.781 21.9046H94.7174V28.0809H106.781V31.6104H94.7174V37.7866H106.781C107.909 37.7866 108.82 38.7131 108.82 39.8602V41.3161L90.031 41.3602Z" fill="#A8A8A8"/>
<path d="M135.811 18.3752H131.385C130.561 18.3752 129.823 18.7282 129.302 19.3899L123.965 26.2281L118.627 19.4341C118.107 18.7723 117.369 18.4194 116.545 18.4194H112.118L121.101 29.8897L112.118 41.3602H116.545C117.369 41.3602 118.107 41.0072 118.627 40.3455L123.965 33.5515L129.346 40.3896C129.866 41.0072 130.604 41.4043 131.429 41.4043H135.855L126.872 29.9338L135.811 18.3752Z" fill="#A8A8A8"/>
<path d="M75.3207 38.9353L81.4826 27.9943V41.3177H86.1692V18.3327H83.2618C82.3505 18.3327 81.4826 18.818 81.0487 19.6562L73.6718 33.3324L66.2949 19.6562C65.8609 18.818 64.993 18.3327 64.0817 18.3327H61.1744V41.3177H65.8609V27.9943L72.0227 38.9353H75.3207Z" fill="#A8A8A8"/>
<path d="M148.048 41.6252C141.539 41.7134 136.245 36.5075 136.202 29.8901C136.202 26.2725 137.287 23.2725 139.326 21.199C141.366 19.1696 144.317 18.0667 147.832 18.0667C151.954 18.0667 155.208 19.5226 157.552 22.3461L156.076 23.6255C155.165 24.4195 153.82 24.4637 152.822 23.7137C151.52 22.699 149.871 22.2137 148.005 22.2137C143.405 22.2137 140.671 25.0372 140.671 29.8019C140.671 34.6105 143.492 37.5665 148.005 37.5665C149.914 37.5665 151.52 37.037 152.822 36.0664C153.776 35.3164 155.122 35.3606 156.076 36.1546L157.552 37.434C155.208 40.2134 152.084 41.6252 148.048 41.6252Z" fill="#A8A8A8"/>
<path d="M176.905 41.6251C169.616 41.6251 165.102 37.1252 165.102 29.8899C165.102 22.6548 169.616 18.1549 176.819 18.1549C180.29 18.1549 183.197 19.1696 185.454 21.2431L184.37 22.4783C183.892 23.0077 183.197 23.3166 182.503 23.3166C182.113 23.3166 181.722 23.2283 181.375 23.0519C180.029 22.346 178.467 21.993 176.819 21.993C172.131 21.993 169.224 25.0371 169.224 29.9342C169.224 34.8751 172.262 37.9192 177.122 37.9192C179.465 37.9192 181.288 37.4781 182.633 36.5076L182.72 36.4635V31.7428H177.556V30.1987C177.556 29.0518 178.467 28.1253 179.596 28.1253H185.974C186.149 28.1253 186.321 28.3017 186.321 28.4782V38.6693C184.109 40.6104 180.941 41.6251 176.905 41.6251Z" fill="#C2C2C2"/>
<path d="M194.697 41.5811C193.091 41.5811 191.832 41.2282 190.879 40.6106C189.881 39.9488 189.359 38.9781 189.359 37.6546V18.4197H191.876C192.788 18.4197 193.569 19.1697 193.569 20.1403V37.0811C193.569 37.1254 193.569 37.9194 194.219 38.5811C194.611 38.9781 195.087 39.1987 195.737 39.1987H196.215C196.39 39.1987 196.562 39.3753 196.562 39.5517V41.6252L194.697 41.5811Z" fill="#C2C2C2"/>
</g>
<defs>
<linearGradient id="paint0_linear_362_662" x1="14.5167" y1="31.0105" x2="42.0483" y2="41.0178" gradientUnits="userSpaceOnUse">
<stop stop-color="#7D7D7D" stop-opacity="0"/>
<stop offset="1" stop-color="#707070"/>
</linearGradient>
</defs>
</svg>
