<svg width="157" height="61" viewBox="0 0 157 61" fill="none" xmlns="http://www.w3.org/2000/svg">
<path d="M2.33781 14.7018C1.65187 16.0481 1.32348 17.577 1.16124 19.5627C1 21.5361 1 24.0113 1 27.2626V27.2899V33.7101V33.7373C1 36.9886 1 39.4638 1.16124 41.4372C1.32348 43.423 1.65187 44.952 2.33781 46.2982C3.51458 48.6077 5.39229 50.4854 7.70184 51.6622C9.04807 52.3482 10.577 52.6765 12.5628 52.8388C14.5362 53 17.0114 53 20.2627 53H20.2899H26.7102H26.7374C29.9887 53 32.4639 53 34.4373 52.8388C36.423 52.6765 37.9519 52.3482 39.2981 51.6622C41.6077 50.4854 43.4855 48.6077 44.6623 46.2982C45.3481 44.952 45.6765 43.423 45.8388 41.4372C46 39.4638 46 36.9886 46 33.7375V33.7101V27.2899V27.2626C46 24.0113 46 21.5362 45.8388 19.5627C45.6765 17.577 45.3481 16.0481 44.6623 14.7018C43.4855 12.3923 41.6077 10.5146 39.2981 9.33781C37.9519 8.65186 36.423 8.32348 34.4373 8.16124C32.4639 8 29.9887 8 26.7374 8H26.7102H20.2899H20.2627C17.0114 8 14.5362 8 12.5628 8.16124C10.577 8.32348 9.04807 8.65186 7.70184 9.33781C5.39229 10.5146 3.51458 12.3923 2.33781 14.7018Z" stroke="#A8A8A8"/>
<path fill-rule="evenodd" clip-rule="evenodd" d="M6.51981 50.2704C4.98018 49.1808 3.71977 47.7296 2.85589 46.0342C2.33742 45.0166 2.02987 43.8711 1.84744 42.4292L2.3372 41.0068L3.5373 37.5216H7.22344H16.8155C18.8729 37.5216 21.0837 35.9446 21.7535 33.9993C22.4233 32.054 21.2985 30.4769 19.2411 30.4769H5.67909L8.07927 23.5064H21.6413C27.7702 23.5064 31.1213 28.2042 29.1259 33.9993C27.8394 37.7353 24.6449 41.0153 20.895 42.8744L24.1813 52.4186H20.2899C19.0096 52.4186 17.8545 52.4186 16.8057 52.409L14.0798 44.4921H8.5094L6.51981 50.2704ZM38.7373 32.3793C39.755 22.6961 32.687 14.8463 22.9505 14.8463L23.3216 11.3162C35.0185 11.3162 43.5096 20.7464 42.2869 32.3793H38.7373ZM22.3018 21.0138C28.6133 21.0138 33.1951 26.1024 32.5353 32.3793H36.0849C36.9496 24.1527 30.9448 17.4837 22.6729 17.4837L22.3018 21.0138Z" fill="#A8A8A8"/>
<g clip-path="url(#clip0_439_611)">
<path d="M77.7807 39.9129C77.8451 40.9007 77.9955 41.6631 78.2317 42.2H74.2051C73.9903 41.7705 73.8507 41.1048 73.7863 40.2028L73.5608 37.1426C73.4749 36.2621 73.2279 35.6178 72.8199 35.2098C72.4119 34.8017 71.7783 34.5977 70.9193 34.5977H65.9907V42.2H61.9641V20.2952H71.9502C73.3675 20.2952 74.6346 20.6066 75.7513 21.2293C76.8895 21.8521 77.77 22.7111 78.3928 23.8064C79.037 24.9016 79.3591 26.1364 79.3591 27.5109C79.3591 28.8423 78.9833 30.0342 78.2317 31.0865C77.4801 32.1173 76.4492 32.9012 75.1392 33.4381C76.5781 34.0394 77.3619 35.1346 77.4908 36.7238L77.7807 39.9129ZM71.4992 31.2476C72.6159 31.2476 73.5179 30.904 74.2051 30.2168C74.9138 29.5295 75.2681 28.6276 75.2681 27.5109C75.2681 26.3727 74.9245 25.46 74.2373 24.7728C73.5501 24.0855 72.6374 23.7419 71.4992 23.7419H65.9907V31.2476H71.4992Z" fill="#A8A8A8"/>
<path d="M82.7788 26.2223H86.6443V42.2H82.7788V26.2223ZM84.7115 23.7419C83.9384 23.7419 83.2834 23.4842 82.7465 22.9688C82.2311 22.4319 81.9734 21.7769 81.9734 21.0038C81.9734 20.2522 82.2311 19.6186 82.7465 19.1032C83.2834 18.5664 83.9384 18.2979 84.7115 18.2979C85.4632 18.2979 86.1074 18.5664 86.6443 19.1032C87.1812 19.6186 87.4496 20.2522 87.4496 21.0038C87.4496 21.7769 87.1812 22.4319 86.6443 22.9688C86.1074 23.4842 85.4632 23.7419 84.7115 23.7419Z" fill="#A8A8A8"/>
<path d="M99.2464 25.8358C101.093 25.8358 102.554 26.4371 103.627 27.6397C104.701 28.8209 105.238 30.4315 105.238 32.4717V42.2H101.372V33.0193C101.372 31.7093 101.083 30.7214 100.503 30.0557C99.9444 29.3685 99.1068 29.0249 97.9901 29.0249C96.809 29.0249 95.907 29.4329 95.2842 30.249C94.6614 31.0436 94.35 32.214 94.35 33.7602V42.2H90.4845V26.2223H94.2534V29.0893C94.6614 28.0585 95.2949 27.2639 96.154 26.7055C97.013 26.1257 98.0438 25.8358 99.2464 25.8358Z" fill="#A8A8A8"/>
<path d="M116.75 48.8359C114.387 48.8359 112.487 48.2883 111.048 47.193C109.609 46.0978 108.825 44.5945 108.696 42.6832L112.401 42.3288C112.508 43.3811 112.948 44.1865 113.722 44.7448C114.495 45.3247 115.483 45.6146 116.685 45.6146C118.06 45.6146 119.112 45.1958 119.842 44.3583C120.572 43.5422 120.937 42.3825 120.937 40.8793V39.1075C120.594 39.8162 119.949 40.3961 119.004 40.8471C118.081 41.2766 117.061 41.4913 115.944 41.4913C114.462 41.4913 113.12 41.1584 111.918 40.4927C110.737 39.8055 109.802 38.8713 109.115 37.6902C108.449 36.4876 108.117 35.1453 108.117 33.6635C108.117 32.1817 108.46 30.8503 109.147 29.6691C109.835 28.488 110.779 27.5645 111.982 26.8988C113.185 26.2116 114.538 25.868 116.041 25.868C117.136 25.868 118.156 26.0935 119.101 26.5445C120.046 26.9955 120.733 27.5645 121.163 28.2518V26.2223H124.803V40.0095C124.803 42.7584 124.083 44.9166 122.645 46.4843C121.227 48.052 119.262 48.8359 116.75 48.8359ZM116.588 38.27C117.92 38.27 119.015 37.8405 119.874 36.9815C120.755 36.101 121.195 34.995 121.195 33.6635C121.195 32.3321 120.755 31.2368 119.874 30.3778C119.015 29.5188 117.92 29.0893 116.588 29.0893C115.278 29.0893 114.183 29.5188 113.303 30.3778C112.444 31.2368 112.014 32.3321 112.014 33.6635C112.014 34.995 112.444 36.101 113.303 36.9815C114.162 37.8405 115.257 38.27 116.588 38.27Z" fill="#A8A8A8"/>
<path d="M142.818 36.5305H133.541L131.383 42.2H127.292L135.764 20.2952H140.853L149.196 42.2H144.912L142.818 36.5305ZM141.562 33.1804L138.244 24.2573L134.829 33.1804H141.562Z" fill="#A8A8A8"/>
<path d="M152.475 20.2952H156.501V42.2H152.475V20.2952Z" fill="#A8A8A8"/>
</g>
<defs>
<clipPath id="clip0_439_611">
<rect width="95" height="40" fill="white" transform="translate(62 10.5)"/>
</clipPath>
</defs>
</svg>
