<svg width="189" height="44" viewBox="0 0 189 44" fill="none" xmlns="http://www.w3.org/2000/svg">
<rect width="189" height="44" rx="22" fill="url(#paint0_linear_403_659)"/>
<rect x="0.5" y="0.5" width="188" height="43" rx="21.5" stroke="white" stroke-opacity="0.5"/>
<path d="M24.6808 29V18.14H20.3808V15H32.9208V18.14H28.6408V29H24.6808ZM32.013 29L38.193 15H42.093L48.293 29H44.173L39.333 16.94H40.893L36.053 29H32.013ZM35.393 26.28L36.413 23.36H43.253L44.273 26.28H35.393ZM56.2803 29.28C55.1603 29.28 54.127 29.1 53.1803 28.74C52.2336 28.38 51.407 27.8733 50.7003 27.22C50.007 26.5533 49.467 25.78 49.0803 24.9C48.6936 24.02 48.5003 23.0533 48.5003 22C48.5003 20.9467 48.6936 19.98 49.0803 19.1C49.467 18.22 50.007 17.4533 50.7003 16.8C51.407 16.1333 52.2336 15.62 53.1803 15.26C54.127 14.9 55.1603 14.72 56.2803 14.72C57.4136 14.72 58.447 14.9 59.3803 15.26C60.327 15.62 61.147 16.1333 61.8403 16.8C62.5336 17.4533 63.0736 18.22 63.4603 19.1C63.8603 19.98 64.0603 20.9467 64.0603 22C64.0603 23.0533 63.8603 24.0267 63.4603 24.92C63.0736 25.8 62.5336 26.5667 61.8403 27.22C61.147 27.8733 60.327 28.38 59.3803 28.74C58.447 29.1 57.4136 29.28 56.2803 29.28ZM56.2803 26C56.8136 26 57.307 25.9067 57.7603 25.72C58.227 25.5333 58.627 25.2667 58.9603 24.92C59.307 24.56 59.5736 24.1333 59.7603 23.64C59.9603 23.1467 60.0603 22.6 60.0603 22C60.0603 21.3867 59.9603 20.84 59.7603 20.36C59.5736 19.8667 59.307 19.4467 58.9603 19.1C58.627 18.74 58.227 18.4667 57.7603 18.28C57.307 18.0933 56.8136 18 56.2803 18C55.747 18 55.247 18.0933 54.7803 18.28C54.327 18.4667 53.927 18.74 53.5803 19.1C53.247 19.4467 52.9803 19.8667 52.7803 20.36C52.5936 20.84 52.5003 21.3867 52.5003 22C52.5003 22.6 52.5936 23.1467 52.7803 23.64C52.9803 24.1333 53.247 24.56 53.5803 24.92C53.927 25.2667 54.327 25.5333 54.7803 25.72C55.247 25.9067 55.747 26 56.2803 26ZM66.1344 29V15H69.3944L77.1144 24.32H75.5744V15H79.4544V29H76.1944L68.4744 19.68H70.0144V29H66.1344ZM88.7077 29.28C86.641 29.28 85.0277 28.7133 83.8677 27.58C82.7077 26.4467 82.1277 24.84 82.1277 22.76V15H86.0877V22.64C86.0877 23.84 86.321 24.7 86.7877 25.22C87.2677 25.74 87.921 26 88.7477 26C89.5743 26 90.221 25.74 90.6877 25.22C91.1543 24.7 91.3877 23.84 91.3877 22.64V15H95.2877V22.76C95.2877 24.84 94.7077 26.4467 93.5477 27.58C92.3877 28.7133 90.7743 29.28 88.7077 29.28ZM108.711 29.28C107.564 29.28 106.457 29.14 105.391 28.86C104.337 28.5667 103.477 28.1933 102.811 27.74L104.111 24.82C104.737 25.22 105.457 25.5533 106.271 25.82C107.097 26.0733 107.917 26.2 108.731 26.2C109.277 26.2 109.717 26.1533 110.051 26.06C110.384 25.9533 110.624 25.82 110.771 25.66C110.931 25.4867 111.011 25.2867 111.011 25.06C111.011 24.74 110.864 24.4867 110.571 24.3C110.277 24.1133 109.897 23.96 109.431 23.84C108.964 23.72 108.444 23.6 107.871 23.48C107.311 23.36 106.744 23.2067 106.171 23.02C105.611 22.8333 105.097 22.5933 104.631 22.3C104.164 21.9933 103.784 21.6 103.491 21.12C103.197 20.6267 103.051 20.0067 103.051 19.26C103.051 18.42 103.277 17.66 103.731 16.98C104.197 16.3 104.891 15.7533 105.811 15.34C106.731 14.9267 107.877 14.72 109.251 14.72C110.171 14.72 111.071 14.8267 111.951 15.04C112.844 15.24 113.637 15.54 114.331 15.94L113.111 18.88C112.444 18.52 111.784 18.2533 111.131 18.08C110.477 17.8933 109.844 17.8 109.231 17.8C108.684 17.8 108.244 17.86 107.911 17.98C107.577 18.0867 107.337 18.2333 107.191 18.42C107.044 18.6067 106.971 18.82 106.971 19.06C106.971 19.3667 107.111 19.6133 107.391 19.8C107.684 19.9733 108.064 20.12 108.531 20.24C109.011 20.3467 109.531 20.46 110.091 20.58C110.664 20.7 111.231 20.8533 111.791 21.04C112.364 21.2133 112.884 21.4533 113.351 21.76C113.817 22.0533 114.191 22.4467 114.471 22.94C114.764 23.42 114.911 24.0267 114.911 24.76C114.911 25.5733 114.677 26.3267 114.211 27.02C113.757 27.7 113.071 28.2467 112.151 28.66C111.244 29.0733 110.097 29.28 108.711 29.28ZM120.2 29L115.66 15H119.74L123.56 27.12H121.5L125.52 15H129.16L132.96 27.12H130.98L134.92 15H138.7L134.16 29H129.92L126.68 18.7H127.82L124.44 29H120.2ZM137.95 29L144.13 15H148.03L154.23 29H150.11L145.27 16.94H146.83L141.99 29H137.95ZM141.33 26.28L142.35 23.36H149.19L150.21 26.28H141.33ZM155.353 29V15H161.753C163.033 15 164.133 15.2067 165.053 15.62C165.986 16.0333 166.706 16.6333 167.213 17.42C167.72 18.1933 167.973 19.1133 167.973 20.18C167.973 21.2333 167.72 22.1467 167.213 22.92C166.706 23.6933 165.986 24.2933 165.053 24.72C164.133 25.1333 163.033 25.34 161.753 25.34H157.553L159.313 23.62V29H155.353ZM159.313 24.04L157.553 22.22H161.513C162.34 22.22 162.953 22.04 163.353 21.68C163.766 21.32 163.973 20.82 163.973 20.18C163.973 19.5267 163.766 19.02 163.353 18.66C162.953 18.3 162.34 18.12 161.513 18.12H157.553L159.313 16.3V24.04Z" fill="#1459F3"/>
<path d="M24.6808 29V18.14H20.3808V15H32.9208V18.14H28.6408V29H24.6808ZM32.013 29L38.193 15H42.093L48.293 29H44.173L39.333 16.94H40.893L36.053 29H32.013ZM35.393 26.28L36.413 23.36H43.253L44.273 26.28H35.393ZM56.2803 29.28C55.1603 29.28 54.127 29.1 53.1803 28.74C52.2336 28.38 51.407 27.8733 50.7003 27.22C50.007 26.5533 49.467 25.78 49.0803 24.9C48.6936 24.02 48.5003 23.0533 48.5003 22C48.5003 20.9467 48.6936 19.98 49.0803 19.1C49.467 18.22 50.007 17.4533 50.7003 16.8C51.407 16.1333 52.2336 15.62 53.1803 15.26C54.127 14.9 55.1603 14.72 56.2803 14.72C57.4136 14.72 58.447 14.9 59.3803 15.26C60.327 15.62 61.147 16.1333 61.8403 16.8C62.5336 17.4533 63.0736 18.22 63.4603 19.1C63.8603 19.98 64.0603 20.9467 64.0603 22C64.0603 23.0533 63.8603 24.0267 63.4603 24.92C63.0736 25.8 62.5336 26.5667 61.8403 27.22C61.147 27.8733 60.327 28.38 59.3803 28.74C58.447 29.1 57.4136 29.28 56.2803 29.28ZM56.2803 26C56.8136 26 57.307 25.9067 57.7603 25.72C58.227 25.5333 58.627 25.2667 58.9603 24.92C59.307 24.56 59.5736 24.1333 59.7603 23.64C59.9603 23.1467 60.0603 22.6 60.0603 22C60.0603 21.3867 59.9603 20.84 59.7603 20.36C59.5736 19.8667 59.307 19.4467 58.9603 19.1C58.627 18.74 58.227 18.4667 57.7603 18.28C57.307 18.0933 56.8136 18 56.2803 18C55.747 18 55.247 18.0933 54.7803 18.28C54.327 18.4667 53.927 18.74 53.5803 19.1C53.247 19.4467 52.9803 19.8667 52.7803 20.36C52.5936 20.84 52.5003 21.3867 52.5003 22C52.5003 22.6 52.5936 23.1467 52.7803 23.64C52.9803 24.1333 53.247 24.56 53.5803 24.92C53.927 25.2667 54.327 25.5333 54.7803 25.72C55.247 25.9067 55.747 26 56.2803 26ZM66.1344 29V15H69.3944L77.1144 24.32H75.5744V15H79.4544V29H76.1944L68.4744 19.68H70.0144V29H66.1344ZM88.7077 29.28C86.641 29.28 85.0277 28.7133 83.8677 27.58C82.7077 26.4467 82.1277 24.84 82.1277 22.76V15H86.0877V22.64C86.0877 23.84 86.321 24.7 86.7877 25.22C87.2677 25.74 87.921 26 88.7477 26C89.5743 26 90.221 25.74 90.6877 25.22C91.1543 24.7 91.3877 23.84 91.3877 22.64V15H95.2877V22.76C95.2877 24.84 94.7077 26.4467 93.5477 27.58C92.3877 28.7133 90.7743 29.28 88.7077 29.28ZM108.711 29.28C107.564 29.28 106.457 29.14 105.391 28.86C104.337 28.5667 103.477 28.1933 102.811 27.74L104.111 24.82C104.737 25.22 105.457 25.5533 106.271 25.82C107.097 26.0733 107.917 26.2 108.731 26.2C109.277 26.2 109.717 26.1533 110.051 26.06C110.384 25.9533 110.624 25.82 110.771 25.66C110.931 25.4867 111.011 25.2867 111.011 25.06C111.011 24.74 110.864 24.4867 110.571 24.3C110.277 24.1133 109.897 23.96 109.431 23.84C108.964 23.72 108.444 23.6 107.871 23.48C107.311 23.36 106.744 23.2067 106.171 23.02C105.611 22.8333 105.097 22.5933 104.631 22.3C104.164 21.9933 103.784 21.6 103.491 21.12C103.197 20.6267 103.051 20.0067 103.051 19.26C103.051 18.42 103.277 17.66 103.731 16.98C104.197 16.3 104.891 15.7533 105.811 15.34C106.731 14.9267 107.877 14.72 109.251 14.72C110.171 14.72 111.071 14.8267 111.951 15.04C112.844 15.24 113.637 15.54 114.331 15.94L113.111 18.88C112.444 18.52 111.784 18.2533 111.131 18.08C110.477 17.8933 109.844 17.8 109.231 17.8C108.684 17.8 108.244 17.86 107.911 17.98C107.577 18.0867 107.337 18.2333 107.191 18.42C107.044 18.6067 106.971 18.82 106.971 19.06C106.971 19.3667 107.111 19.6133 107.391 19.8C107.684 19.9733 108.064 20.12 108.531 20.24C109.011 20.3467 109.531 20.46 110.091 20.58C110.664 20.7 111.231 20.8533 111.791 21.04C112.364 21.2133 112.884 21.4533 113.351 21.76C113.817 22.0533 114.191 22.4467 114.471 22.94C114.764 23.42 114.911 24.0267 114.911 24.76C114.911 25.5733 114.677 26.3267 114.211 27.02C113.757 27.7 113.071 28.2467 112.151 28.66C111.244 29.0733 110.097 29.28 108.711 29.28ZM120.2 29L115.66 15H119.74L123.56 27.12H121.5L125.52 15H129.16L132.96 27.12H130.98L134.92 15H138.7L134.16 29H129.92L126.68 18.7H127.82L124.44 29H120.2ZM137.95 29L144.13 15H148.03L154.23 29H150.11L145.27 16.94H146.83L141.99 29H137.95ZM141.33 26.28L142.35 23.36H149.19L150.21 26.28H141.33ZM155.353 29V15H161.753C163.033 15 164.133 15.2067 165.053 15.62C165.986 16.0333 166.706 16.6333 167.213 17.42C167.72 18.1933 167.973 19.1133 167.973 20.18C167.973 21.2333 167.72 22.1467 167.213 22.92C166.706 23.6933 165.986 24.2933 165.053 24.72C164.133 25.1333 163.033 25.34 161.753 25.34H157.553L159.313 23.62V29H155.353ZM159.313 24.04L157.553 22.22H161.513C162.34 22.22 162.953 22.04 163.353 21.68C163.766 21.32 163.973 20.82 163.973 20.18C163.973 19.5267 163.766 19.02 163.353 18.66C162.953 18.3 162.34 18.12 161.513 18.12H157.553L159.313 16.3V24.04Z" fill="white"/>
<defs>
<linearGradient id="paint0_linear_403_659" x1="94.5" y1="0" x2="94.5" y2="44" gradientUnits="userSpaceOnUse">
<stop stop-color="white" stop-opacity="0.6"/>
<stop offset="0.0001" stop-color="white" stop-opacity="0.6"/>
<stop offset="1" stop-color="white" stop-opacity="0.2"/>
</linearGradient>
</defs>
</svg>
