<svg width="36" height="36" viewBox="0 0 36 36" fill="none" xmlns="http://www.w3.org/2000/svg">
<path d="M18 3C9.71371 3 3 9.71371 3 18C3 26.2863 9.71371 33 18 33C26.2863 33 33 26.2863 33 18C33 9.71371 26.2863 3 18 3ZM25.3669 13.2762L22.9053 24.877C22.7238 25.6996 22.2339 25.8993 21.5504 25.5121L17.8004 22.748L15.9919 24.4899C15.7924 24.6895 15.623 24.8589 15.2359 24.8589L15.502 21.0424L22.4516 14.7641C22.754 14.498 22.3851 14.3468 21.9859 14.6129L13.3972 20.0201L9.69556 18.8649C8.89113 18.6109 8.87299 18.0605 9.86493 17.6734L24.3266 12.0968C24.998 11.8548 25.5846 12.2601 25.3669 13.2762Z" fill="white"/>
</svg>
