<svg width="196" height="61" viewBox="0 0 196 61" fill="none" xmlns="http://www.w3.org/2000/svg">
<g clip-path="url(#clip0_416_950)">
<path d="M18.5163 10C15.6154 10 12.8903 11.3851 11.2101 13.7138L5.82461 21.1801L-0.89286 30.5016L5.8282 39.8196L12.5493 30.5016L27.327 10H18.5163Z" fill="#B6B6B6"/>
<path d="M35.3837 13.7138L62.2715 50.9996H53.461C50.5563 50.9996 47.835 49.6145 46.1546 47.2858L19.2668 10H28.0774C30.982 10 33.7035 11.3851 35.3837 13.7138Z" fill="#B6B6B6"/>
<path d="M46.151 13.7138L19.2668 50.9996H28.0774C30.982 50.9996 33.7035 49.6145 35.3837 47.2858L62.268 10H53.4574C50.5529 10 47.8314 11.3851 46.151 13.7138Z" fill="#B6B6B6"/>
<path d="M5.82814 39.8179L11.2136 47.2843C12.8939 49.6128 15.6153 50.9981 18.52 50.9981H27.3305L12.5456 30.5L5.82455 39.8179H5.82814Z" fill="#B6B6B6"/>
<path d="M81.9648 19.5346L71.9893 41.7076H78.5113L80.2722 37.4001H89.8551L91.6161 41.7076H98.2677L88.2597 19.5346H81.9648ZM82.1629 32.7748L85.0619 25.683L87.9608 32.7748H82.1593H82.1629Z" fill="#B6B6B6"/>
<path d="M106.468 19.5346H100.076V41.7076H117.25V36.7358H106.468V19.5346Z" fill="#B6B6B6"/>
<path d="M135.444 20.5169C133.949 19.8632 132.167 19.5346 130.099 19.5346H119.767V41.7076H126.16V35.909H130.099C132.167 35.909 133.946 35.5769 135.444 34.9125C136.938 34.2482 138.098 33.3012 138.915 32.0786C139.733 30.8526 140.144 29.4073 140.144 27.7394C140.144 26.0717 139.733 24.5875 138.915 23.3508C138.098 22.1141 136.942 21.1706 135.444 20.5169ZM132.7 30.114C132.044 30.683 131.047 30.9692 129.714 30.9692H126.163V24.4745H129.714C131.047 24.4745 132.044 24.7607 132.7 25.3296C133.355 25.8985 133.683 26.7042 133.683 27.7359C133.683 28.7677 133.355 29.5415 132.7 30.1105V30.114Z" fill="#B6B6B6"/>
<path d="M158.351 27.8667H149.632V19.5346H143.24V41.7076H149.632V33.061H158.351V41.7076H164.743V19.5346H158.351V27.8667Z" fill="#B6B6B6"/>
<path d="M186.178 41.7076H192.828L182.821 19.5346H176.526L166.551 41.7076H173.072L174.834 37.4001H184.417L186.178 41.7076ZM176.724 32.7748L179.623 25.683L182.523 32.7748H176.72H176.724Z" fill="#B6B6B6"/>
</g>
<defs>
<clipPath id="clip0_416_950">
<rect width="195" height="41" fill="white" transform="translate(0.5 10)"/>
</clipPath>
</defs>
</svg>
