<svg width="174" height="61" viewBox="0 0 174 61" fill="none" xmlns="http://www.w3.org/2000/svg">
<g clip-path="url(#clip0_416_946)">
<path d="M27.4714 18.6556L16.9571 10.4556L0.54718 14.9981L22.4428 30.5L27.4714 18.6556Z" fill="#B6B6B6"/>
<path d="M27.0143 26.8556L32.0429 14.1L48.5 10L38.4428 34.6L27.0143 26.8556Z" fill="#B6B6B6"/>
<path d="M21.5286 33.6889L10.1 25.4889L0.5 49.8148L16.0429 45.9889L21.5286 33.6889Z" fill="#B6B6B6"/>
<path d="M48.0428 45.0777L26.0999 29.5889L21.0714 40.9777L31.5856 49.1777L48.0428 45.0777Z" fill="#B6B6B6"/>
</g>
<path d="M57.164 29.468H69.404V32.358H57.164V29.468ZM57.47 40.042H71.342V43H54.07V19.2H70.866V22.158H57.47V40.042ZM76.8473 43V19.2H86.1293C88.2147 19.2 89.994 19.5287 91.4673 20.186C92.9407 20.8433 94.074 21.7953 94.8673 23.042C95.6607 24.2887 96.0573 25.7733 96.0573 27.496C96.0573 29.2187 95.6607 30.7033 94.8673 31.95C94.074 33.174 92.9407 34.1147 91.4673 34.772C89.994 35.4293 88.2147 35.758 86.1293 35.758H78.7173L80.2473 34.194V43H76.8473ZM92.7593 43L86.7073 34.364H90.3453L96.4653 43H92.7593ZM80.2473 34.534L78.7173 32.868H86.0273C88.2033 32.868 89.8467 32.4033 90.9573 31.474C92.0907 30.522 92.6573 29.196 92.6573 27.496C92.6573 25.796 92.0907 24.4813 90.9573 23.552C89.8467 22.6227 88.2033 22.158 86.0273 22.158H78.7173L80.2473 20.458V34.534ZM112.294 43.272C110.481 43.272 108.792 42.966 107.228 42.354C105.687 41.742 104.35 40.892 103.216 39.804C102.083 38.6933 101.199 37.4013 100.564 35.928C99.9298 34.4547 99.6125 32.8453 99.6125 31.1C99.6125 29.3547 99.9298 27.7453 100.564 26.272C101.199 24.7987 102.083 23.518 103.216 22.43C104.35 21.3193 105.687 20.458 107.228 19.846C108.77 19.234 110.458 18.928 112.294 18.928C114.108 18.928 115.774 19.234 117.292 19.846C118.834 20.4353 120.171 21.2853 121.304 22.396C122.46 23.484 123.344 24.7647 123.956 26.238C124.591 27.7113 124.908 29.332 124.908 31.1C124.908 32.868 124.591 34.4887 123.956 35.962C123.344 37.4353 122.46 38.7273 121.304 39.838C120.171 40.926 118.834 41.776 117.292 42.388C115.774 42.9773 114.108 43.272 112.294 43.272ZM112.294 40.246C113.609 40.246 114.822 40.0193 115.932 39.566C117.066 39.1127 118.04 38.478 118.856 37.662C119.695 36.8233 120.341 35.8487 120.794 34.738C121.27 33.6273 121.508 32.4147 121.508 31.1C121.508 29.7853 121.27 28.5727 120.794 27.462C120.341 26.3513 119.695 25.388 118.856 24.572C118.04 23.7333 117.066 23.0873 115.932 22.634C114.822 22.1807 113.609 21.954 112.294 21.954C110.957 21.954 109.722 22.1807 108.588 22.634C107.478 23.0873 106.503 23.7333 105.664 24.572C104.826 25.388 104.168 26.3513 103.692 27.462C103.239 28.5727 103.012 29.7853 103.012 31.1C103.012 32.4147 103.239 33.6273 103.692 34.738C104.168 35.8487 104.826 36.8233 105.664 37.662C106.503 38.478 107.478 39.1127 108.588 39.566C109.722 40.0193 110.957 40.246 112.294 40.246ZM135.626 43L146.234 19.2H151.674L162.316 43H156.536L147.832 21.988H150.008L141.27 43H135.626ZM140.93 37.9L142.392 33.718H154.632L156.128 37.9H140.93ZM164.785 43V19.2H170.293V43H164.785Z" fill="#A8A8A8"/>
<defs>
<clipPath id="clip0_416_946">
<rect width="48" height="41" fill="white" transform="translate(0.5 10)"/>
</clipPath>
</defs>
</svg>
